<svg xmlns="http://www.w3.org/2000/svg"  stroke="currentColor" fill="currentColor"  style="height: 40px" viewBox="0 0 963.71 963.67">
<path class="a" d="M1144.51,214.13C1053.25,121.73,941.7,73.68,811.88,71.25,676.17,68.71,559,115.62,462.62,211.36,368.49,304.91,321.25,419,320.34,551.79c-1.82,266.46,216.62,484.1,481.83,483,266.78.45,476.86-215.08,481.77-469.57C1286.56,429,1240.38,311.18,1144.51,214.13Zm-100.09-48.21c1.07-.62,2.11-2.08,3.47-1.09,1,.77.49,2.2.3,3.31q-2.76,16-5.62,31.93c-2.1,11.79-4.35,23.55-6.32,35.36-1.9,11.32-1.74,11.51,4.56,20.65l-19.74-12.8c3.84-.42,4.24-2.52,4.62-4.59,1.28-7,2.39-14.11,3.86-21.11.48-2.27-.22-3.36-2-4.44-5.94-3.69-11.85-7.41-17.71-11.21-1.43-.92-2.53-1.19-4,0-5.07,4.05-10.37,7.83-15.32,12-4.29,3.63-4.15,4.44-.74,9.49l-19.88-12.35c.09-.62.17-1.23.26-1.85,8,6.07,13.63,1.24,19.49-3.1q26.09-19.31,52.29-38.46A27.71,27.71,0,0,1,1044.42,165.92ZM900.86,173c6.52-17.77,12.66-35.68,19.13-53.48,2.09-5.75.68-9.37-6.39-10.54l1.43-1.47,24,8.31c-9-1-9.15,6.39-11.2,11.68-1.86,4.8-3.41,9.72-5.26,14.52-.86,2.2-.47,3.2,1.87,4q19.08,6.56,38,13.44c2.44.89,3.15.11,3.85-2.08,1.77-5.53,3.86-11,5.7-16.48,2.9-8.75,2.86-8.76-3.73-14.7l23.9,8.47c-8.42-1.39-9.08,5.35-10.84,10.28q-9.3,26-18.07,52.26c-2.38,7.15-2,7.27,4.51,10.76.6.32,1.18.6,1.25,2.28l-25.7-9.09c-.19-.48-.37-1-.56-1.45,8.36,2.74,9.36-3.37,11.19-8.06,3-7.73,5.58-15.64,8.55-23.39,1-2.61.7-3.72-2.13-4.68-12.42-4.21-24.77-8.63-37.11-13.1-2.31-.83-3.5-.84-4.37,1.91-2.81,8.86-6.08,17.57-8.86,26.44-2.15,6.82-1.93,6.91,4.53,10.34.53.28,1,.75,1,2.18l-25.41-9-.51-1.47C898,183.74,899.15,177.67,900.86,173ZM788.77,95.26c6.06,0,11.39-.1,16.72,0,7.48.17,15-.4,22.39,1.32,16.26,3.78,21.58,19.41,11.48,32.7-5.19,6.84-19.42,12.2-28.54,8.08,3.6-.51,6.42-.78,9.18-1.31,9.67-1.85,15.56-9.16,14.82-18.26-.88-10.8-8-18.32-17.78-18.82h-.5c-8.81-.32-8.87-.32-9.09,8.43-.46,17.66-1,35.31-1.24,53-.17,10.65,0,10.65,10.38,13.3-3.24.9-23.76.49-29.2-.58,10.07-1.34,8.48-8.38,8.73-14,.75-16.47,1.13-33,1.64-49.45C798.08,99.35,798.07,99.35,788.77,95.26Zm-56.89,4.66c23.85,0,40.25,16.55,40.09,40.33-.17,24.26-19.88,42.56-45.59,42.33A40.35,40.35,0,0,1,686.27,142C686.32,117.52,705.47,99.87,731.88,99.92Zm-133,43.26c.06,1.74-1.51,1.95-2.39,2.63-1.77,1.37-2.73,3-1.77,5.17,3.39,7.75,6.85,15.47,10.22,23.24.61,1.41,1.26,1.57,2.63.94q19-8.7,38.1-17.26c1.78-.8,2-1.79,1.18-3.5-3.38-7-6.73-14.08-10-21.18-2.5-5.46-6.67-2.37-10.66-3l23.51-10.69,1.26.86c-7.17,3.21-5.08,7.82-2.91,12.53,7.27,15.84,14.37,31.76,21.77,47.54,4.77,10.16,4.95,10.07,15.29,9.71l-24.66,11.21-1.39-.73c7.34-3.47,4.57-8.29,2.67-12.77-3.37-8-7.06-15.76-10.48-23.68-1-2.23-1.87-3-4.36-1.84q-18,8.43-36.26,16.52c-2.34,1-2.86,2-1.68,4.41,4,8.21,7.61,16.61,11.65,24.79,3.27,6.63,3.66,6.63,10.76,4.7.6-.16,1.22-.57,2.23.84L609,224.79c5.88-4.31,3.42-9.19,1.36-13.84C602.9,194.27,595.6,177.52,587.8,161c-4.34-9.18-3.32-8.44-12.38-6.5C577.05,152.26,592.82,144.6,598.86,143.18Zm-148,115c8-8.26,15.75-16.73,24-24.67,6.25-6,13.89-9,22.42-5.25s11.93,11.24,12.88,20c1,9.36.87,9.54,10.29,10.33,8.3.69,16.63,1,24.94,1.37a28.59,28.59,0,0,0,6.47-.41c6-1.11,6-1.5,2.84-6.54-1.53-2.4-3.5-4.63-4.41-8.71,3.74,2.82,5.77,6,9.59,6.72,8.2,1.49,19.9-5.67,22.07-13.71s-3.85-16.38-12.88-17.28c-7.11-.7-14.3-.74-21.46-1A41.08,41.08,0,0,1,535.42,217c-12.45-4.34-16.9-17.81-9.53-28.81,5.05-7.54,12.85-11.36,20.63-15.21.82-.41,1.59-.61,2.15.22,2.31,3.49,4.57,7,7.58,11.66-10.88-6-17-5.16-24.11,2.2-3.36,3.45-5.26,7.5-3.7,12.24s5.35,7.59,10.29,8.44a67.82,67.82,0,0,0,14,.45c6.67-.23,13.33-.27,19.82,1.65,16.29,4.84,21.41,23.32,9.79,35.71-5.54,5.9-12.06,10.48-19.95,12.75a10.53,10.53,0,0,0-5.26,3.52,19.89,19.89,0,0,1-17.75,7.25c-8.62-.76-17.31-1.12-25.83-2.49-4.89-.79-8,.3-11.3,3.9-6,6.65-6.25,6.48.36,12.68,3.65,3.42,7.44,6.68,11,10.17s7.18,3.73,10.75-.1a12.38,12.38,0,0,1,1.87-1.38l.92.93L508.6,312.14c4.21-6.74-.83-10.32-4.56-14Q485.5,279.93,466.7,262c-7.26-7-7.31-6.93-15.57-2.9C451,258.79,450.79,258.33,450.89,258.22Zm-41.81,59.57c7.15-11,15.21-21.44,21.21-33.18.58-1.14.9-2.32,2.39-1a110.68,110.68,0,0,1,8.89,8.33c-9.38-4.23-11.78,3.44-15.41,8.45-6,8.2-5.81,8.31,2.49,13.75,4.73,3.11,9.58,6,14.12,9.41,2.64,1.94,3.9,1.31,5.35-1.23,2-3.46,4.22-6.78,6.4-10.12,1.9-2.91,3.54-5.88,2.82-10.42l12.07,9.71c-9.44-3.83-11.33,4.47-14.93,9.21-5.26,6.94-5,7.13,2.07,11.79,5.57,3.64,11.16,7.24,16.73,10.88,3.77,2.46,6.92,1.66,9.53-1.81,1.41-1.86,2.83-3.71,4.06-5.68,3.79-6,8.37-12.08,0-18.68,4.81,1.44,7.64,4.52,10.38,7.66a2.69,2.69,0,0,1,0,3.28c-7.46,12.32-16.74,23.4-24.45,36.06,3.42-7.75-2.43-10.31-6.84-13.29-13.93-9.4-28-18.62-42-27.85-9.1-6-9.14-5.92-17.28-.34C406.72,320.47,408.16,319.23,409.08,317.79Zm-65.9,225.05c.06-2.07,3-2.23,4.78-2.92q30-11.58,60-23c1.24-.47,2.47-1,3.7-1.46,6.33-2.5,11.77-5.79,12.56-13.68v23.19c-2.43-2.16-4-2.25-5.85-1.5-6.79,2.69-13.63,5.24-20.49,7.74-2,.71-2.87,1.71-2.88,3.94q-.07,10.23-.6,20.46c-.12,2.4.7,3.58,2.95,4.38,5.31,1.9,10.5,4.14,15.8,6.06,6.36,2.31,7,2,9.65-4.13V585.7l-1.51.86c1.12-10.95-6.92-12.81-13.87-15.7-19.76-8.23-39.55-16.4-59.3-24.65C346.2,545.42,343.11,545.32,343.18,542.84Zm88.65,97.29c-.87-4.83-4-5.66-8.14-5.26-14.27,1.37-28.29,4.29-42.44,6.39-4.94.73-9.84,1.7-14.76,2.53-9.61,1.63-9.61,1.62-10.59,10.68-1.94-1.7-1.38-4-1.73-6.05-1.14-6.55-2.26-13.11-3.32-19.68a42.5,42.5,0,0,1-.58-6c-.18-7.58,1.61-14.4,8.83-18.24s13.67-1.14,19.46,3.29c3.33,2.55,4.25,2.4,5.44-1.86,3.18-11.35,10.86-17.55,20.8-17.67s18.26,6.16,22.05,16.51C428,607.9,432.4,637.07,431.83,640.13Zm-.22-194.27c-7.82,4.74-16.26,8.29-24.56,12.09-5.41,2.48-10.25,11-9.66,16.75.18,1.73,1.5,1.67,2.47,1.87,7,1.5,14,2.89,21,4.28,4.54.9,7.9-.17,8.83-5.35a11.81,11.81,0,0,1,1.11-2.51l1.26.38-5.9,26.14-1.46.76c2.1-8.23-3.69-9-8.34-10-19.26-4.48-38.6-8.58-57.88-13-5.8-1.32-7.09,2.59-8.24,7.22-1.87-1.51-1.09-2.86-.86-3.92q2.79-12.9,5.78-25.77a51.35,51.35,0,0,1,1.85-6.2c6.15-16.68,22.78-20.13,35.05-7.19a48.9,48.9,0,0,1,5.92,8c1.13,1.83,1.87,2.65,4.12,1.45,8.93-4.79,18-9.26,26.94-14.06,6.29-3.38,11.64-7.76,12.89-16.74C444.61,428.44,439,441.36,431.61,445.86ZM444,424c2.67-5.92-1.31-8-5.22-9.91-18.23-8.79-36.87-16.65-55.44-24.69-4.76-2.05-7.77-.31-10.62,3.26q4.81-11.11,9.65-22.24c2.08-4.76,4.59-9.23,8.76-12.52,8-6.29,17.71-4.75,23.22,3.87,1.92,3,3.18,6.45,4.85,9.93a92.89,92.89,0,0,1,7.47-5.58c7.87-4.77,16-5.65,23.84-.09s10.73,13.62,9.27,23.16a38.52,38.52,0,0,1-3.74,11.3,220.4,220.4,0,0,0-9.48,20.82C446.15,422.29,446,423.55,444,424ZM576.72,884.64c1,6.31,3.66,12.05,6,17.9,3,7.4,5.81,14.85,5.6,23.07-.42,15.91-15.33,27-30.54,22.41-9.8-2.95-17.84-8.7-24.51-16.45-2-2.38-2.35-4.48-.34-7.05,2.87-3.66,5.52-7.49,8.27-11.24l1,.69a3.68,3.68,0,0,1,.06,1.39c-5.49,13.57,5.11,28.52,19.87,28,8.78-.31,15.79-8.93,14.55-18-.91-6.65-3.66-12.75-5.87-19-2.27-6.43-4.6-12.82-5-19.73-.88-15.45,12.22-26.09,27.21-22.23,9.8,2.53,16.74,9.24,24,15.64a1.6,1.6,0,0,1,.24,2.51c-2.74,3.69-5.42,7.42-8.08,11.1-1.45-.71-1.07-1.58-.87-2.29,3.2-11.66-10.17-25.21-22-22.33C580,870.57,575.65,877.62,576.72,884.64ZM652.67,992c-28.1,0-50.49-20.67-50.42-46.55s20.83-47.13,46.24-47.22c27.46-.09,51.68,21.42,51.68,45.9C700.18,970.3,678.67,992,652.67,992ZM787.8,943.23c-.77,3.78-.38,7.92-3,11.69-1.33-1.83-.72-3.17-.71-4.46.05-5.73-1.89-10.56-6.9-13.56-13-7.82-27.14-10.53-41.65-5.9-13.85,4.42-18.67,16.25-21.32,29.48-4.74,23.69,11,52.08,47.06,52,7.47,0,13-3.44,16.13-10.47.5-1.14.57-2.67,2-3.27,1.74.5,1.13,1.77.87,2.82-.39,1.61-.86,3.2-1.39,4.78-4.08,12.27-5.19,13.11-18.12,12.22-11-.76-21.83-2.29-32-6.81-19-8.44-29.44-26.13-27.35-46.48,2-19.94,15.51-35.78,34.33-39.94,14.28-3.16,28.09-.09,41.77,3.87.95.28,1.89.62,2.84.93C789.7,933.21,789.82,933.24,787.8,943.23Zm10.51,74.84c7.82-3.71,8-3.7,8.1-12.86.2-22.14-.49-44.25-1.13-66.38-.18-6.26-4-7.55-9.15-8.13l.41-1.22h27.83c0,.07-.14.86-.35.89-7.34,1-7.3,2.59-7.18,9.88.36,21.3.92,42.59,1.42,63.88,0,1.49.36,3,.41,4.47.17,5.06,2.49,7.71,7.79,7.35,1.08-.08,2.39-.31,3.72,2.12Zm103.13-11.69c-.3,2.31-2.11,2.9-3.93,3.2-15.43,2.52-31,3.83-46.37,7-.23,0-.54-.29-.79-.43,0-.33-.06-.89,0-.9,5.85-1.35,6.5-5.41,6-10.55-1.81-17.06-5.13-33.88-7.64-50.84-.8-5.43-1.68-10.85-2.72-16.24-1.32-6.86-2.3-7.56-9.3-7.24a2.16,2.16,0,0,1-2.39-1.33c6.23-2.06,12.71-2,19-3.17,10.28-1.94,20.81-2.52,30.87-5.67,1.16-.37,2.51-1,2.57.87.15,4.56.05,9.12.05,13.68-.52,0-1.05,0-1.09-.08-2.86-7.22-2.35-7.1-11.59-6.76-5,.19-9.89,1.32-14.85,1.89-2.11.24-2.82,1-2.43,3.21,1.6,9.51,3,19.06,4.49,28.6.27,1.78.9,2.69,2.91,2.36,7.05-1.16,14.14-2.08,21.08-3.9,2.06-.54,2.84-2.67,5.18-3.29.31,5.69.6,11.17.9,16.66-3.41-10.2-11.09-6.5-17.58-5.75-11,1.25-11,1.36-9.5,12.28q1.35,9.63,3,19.22c1.27,7.18,3.83,9,11,8.1a111.81,111.81,0,0,0,11.8-2c6.87-1.66,8.21-3.35,9.15-10.46.11-.83.14-1.67,1.69-2.05A41.24,41.24,0,0,1,901.44,1006.38Zm118.19-43c-.1-.29-.39-.76-.29-.86,5.42-5.68,5.42-5.68,1.74-12.69-12-22.89-12-22.92-35.16-35C978.87,911,972,907,964.59,904c-.3.43-.61.85-.92,1.27.05,1.77,1.36,3.37.84,5.21a6.46,6.46,0,0,1-1,.27c-2.82-6.67-8.06-6.56-13.77-4.85-5.25,1.58-10.43,3.39-15.69,4.93-2.11.62-2.53,1.61-1.81,3.6,8,22,15,44.38,23.62,66.14,2.79,7,3.6,7.24,10.87,5.58,1-.22,1.91-.53,4.14.66l-30.24,10.61c8.8-5.43,4-12.42,2-18.47-6.63-20-13.79-39.87-20.54-59.85-1.1-3.24-2.44-3.58-5.28-2.28-3.17,1.45-6.51,2.51-9.78,3.7-7,2.56-14.91,4.09-14.55,14.63-2.73-5-2.39-9.95-3.06-14.71-.16-1.13.68-1.66,1.86-1.85,16.86-2.74,32.2-10.33,48.36-15.3A141.21,141.21,0,0,0,971.25,889c-3,5.17.54,6.87,3.81,8.67q16.35,9.06,32.74,18.06c1,.53,1.83,1.55,4.08.82,0-13.28.07-26.86,0-40.44,0-4-2.07-6.49-8.05-6.07l21.8-12.47,1,.89c-8.93,6.33-8.18,15.82-8.61,24.84-.49,10.15-.67,20.31-1.05,30.46A19.71,19.71,0,0,0,1020,925.1c3.91,6.37,7.52,12.94,11.49,19.27s4.87,6.58,12.12,3.53c.7-.29,1.43-.51,2.48-.89C1044.65,949.89,1025,961.8,1019.63,963.33ZM802,905.29c-195.32-.15-352.91-158.5-352.08-352.85.84-195.76,158.47-352.62,352.47-352,195.29.26,352.5,158.49,352.21,352.88C1154.28,748.4,996.2,905.44,802,905.29Zm351.21-507.21a90.29,90.29,0,0,1-12-18.84c-.25-.5-.12-1.05.69-1.51,16-9.24,29-22.55,44-34-2.79.21-5.6.35-8.39.66-16.38,1.8-32.75,3.69-49.14,5.39-2.15.22-5.12,1.62-6.46-.68-1.1-1.87,1.12-3.93,2.12-5.79,8.81-16.42,19-32,28.52-48l-.9-1.14c-13.45,6.91-26.83,14-40.4,20.63-5.28,2.6-7,5.73-3,10.65-1.86.64-2.35-.15-2.7-.85-4.11-8.12-9.84-14.94-16.3-21.29-3.22-3.16-4.11-7.48-4.16-12-.11-9.36,1.06-18.64,2.41-27.84.74-5-.34-8.36-4.06-11.72-6.5-5.88-6.33-6.09-12.34.33-3.3,3.53-6.65,7-9.79,10.68-4.58,5.37-4.52,6.06-.24,11.45.48.61,1.33,1.09.88,2.1-2.76-1.16-16-13.37-20.86-19.64,9,6.41,12.45-.51,16.44-4.53,12.09-12.18,23.86-24.67,35.64-37.15,6.4-6.78,6.29-6.88,1.33-14,1.07-1.17,1.78-.12,2.42.49,7,6.66,14.09,13.23,20.91,20.07,7,7,12.41,15.06,7.84,25.39-4.46,10.1-13.69,13.21-23.9,13-4.77-.08-5.64,1.53-5.88,5.8-.54,9.47-1.67,18.91-1.74,28.42a32.73,32.73,0,0,0,.69,7.94c2,8.45,5.34,10.19,13,6.5,19.31-9.3,38.59-18.66,57.92-27.9,1.93-.93,4.33-3.59,6.09-1.49s-1.09,4.21-2.22,6.12q-15.93,26.81-32,53.52c-.85,1.4-1.67,2.82-2.93,5,7.5-.79,14.32-1.46,21.13-2.23,16-1.83,32.07-3.75,48.12-5.53,1.47-.16,3.7-1.31,4.4.77.61,1.82-1.54,2.72-2.78,3.72q-22.71,18.4-45.48,36.72C1153.49,382.63,1145.5,387.42,1153.18,398.08Zm39.24-9.11c22.69-4.62,43.21,8.36,49.45,31.28,6,22-2.06,41.38-20.65,49.43a45.6,45.6,0,0,1-17.93,3.73c-21.44.11-39.2-16-42.23-38.22C1158,412.71,1171.16,393.3,1192.42,389ZM1256,612.78c-1.5-4.06-3.08-5.34-6.17-4.08-11.81,4.85-23.71,9.47-36.06,14.37,9.61,8,18.78,15.61,28,23.18,2.7,2.22,5.52,2.88,9-1.73-1.32,8.26-2.38,14.82-3.43,21.39-.94-9-7.57-13.72-13.27-19-5.13-4.75-10.66-9.07-15.65-14a31.41,31.41,0,0,0-20.42-9.13c-4.8-.36-9.57-1.19-14.32-2-4.92-.85-7.6,1.16-8.43,6-.13.77,0,1.71-2.13,2.48,1.56-9.4,3-18.25,4.49-27.11l1.6-.67c-1.68,8.1,3.46,8.74,8.64,9.53,4.93.74,9.81,1.78,14.73,2.59a24.05,24.05,0,0,0,14.13-1.6c9.55-4.27,19.25-8.19,28.86-12.29,5.67-2.42,10.85-5.46,14.22-11.26C1258.63,596.67,1257.46,603.88,1256,612.78Zm4.2-39.17c-.48-8.8-6.42-7.24-11.63-7-20.8,1-41.6,2-62.4,2.89-1.58.07-3.79,1-4.62-.67-1-1.9,1.18-3.23,2.27-4.55,16.07-19.38,33.65-37.38,50.94-55.64l7-7.35c-9.64.65-18,1.18-26.32,1.8-8.63.64-17.28,1.18-25.88,2.11-7.22.78-7.85,1.68-8.57,8.85-.07.64-.08,1.33-1.6,1.68-.46-8.29-.91-16.47-1.35-24.6,1.39-.24,1.77.32,1.79,1,.1,4.86,2.94,6.14,7.27,5.93,18.8-.93,37.6-1.77,56.39-2.65,3.33-.16,6.66-.46,10-.48,1.74,0,4.2-.93,5.06,1,1,2.15-1.47,3.44-2.74,4.81-5.42,5.87-11,11.64-16.45,17.46l-42.12,44.71c8.06.47,15.1-.74,22.16-1.11,10.14-.53,20.28-1.24,30.39-2.19,5.65-.52,9.38-.45,8.63-8.51-.07-.78,0-1.69,1.12-1.89C1260.63,553.53,1261.34,569.24,1260.23,573.61Z" transform="translate(-320.33 -71.15)"/><path class="a" d="M995,724.24a3.61,3.61,0,0,0-3.48,2.2c-4.93,8.55-12.76,12.89-22.21,14.41-11.21,1.8-22.58,1.5-33.89,2-9.84.44-19.6,1.43-29.12,4.06-13.12,3.63-18.45,12-16.5,25.44,2.19,15.17,9.58,28.21,16.79,41.32,4.78,8.71,10.56,16.82,16.3,25.15-6.62-2.68-13-5.68-19.26-8.91-1.06-.54-1.75-2-2.41-3.08a136,136,0,0,1-16.72-42.48c-5.23-25.69,5.33-42.05,30.92-48.63a237,237,0,0,1,42.77-7c15.44-1.09,23.37-8,25.71-26.41.81-6.38-2.31-10.84-8.3-13.25-4.62-1.85-9.39-3.33-14-5.12-4.14-1.6-7.82-3.95-9.52-8.28-5.13-13.08-4-24.08,5-33.36a64.14,64.14,0,0,1,9.57-8c8-5.58,8.76-8.35,4.59-17-1.22-2.54-2.58-5-3.93-7.5a19.42,19.42,0,0,1-2.24-8.09c-.48-6.7,3.07-11.26,7.54-15.56,5.54-5.34,6-10.12,1.87-16.4a40.22,40.22,0,0,0-3.47-4.25c-9.42-10.81-17.74-22.44-26-34.16-6.94-9.84-7.29-20-3.63-30.81,4.5-13.3,3.13-26.12-4.41-37.79-8-12.43-16.65-24.5-25.42-36.43-13.9-18.92-31.51-32.78-54.78-38.51-1.26-.31-3.64-.2-3.13-2.29s2.6-.76,3.82-.49c15.11,3.37,29.44,8.94,41.35,18.87,6.8,5.66,13.66,7.22,22.16,7.18,61.48-.28,123-.15,184.92-.15-91.07-197-337.1-247.29-493.39-134,.09.14.15.36.27.4.78.29,1.56.56,2.35.79,26.64,7.77,48.77,22.39,66.66,43.6,12.61,14.95,23,31.35,33,48.12,5.51,9.3,7,19.24,5.93,29.77-.91,9-5.57,17-7,26-1.27,8-.63,15.3,4.58,22.18,9.95,13.15,19.88,26.3,30.39,39a43.26,43.26,0,0,1,7.9,14.85c2.76,8.73.92,15.88-6.09,22-10,8.69-10.95,14.41-5.11,26.29,6.37,13,5.47,18.35-4.82,28.28-8.08,7.82-10.26,17.1-7.3,27.86,2.05,7.46,7.15,12.29,13.4,16.06,8.26,5,12.86,12.27,14.72,21.55.43,2.11,1.06,4.19,1.51,6.3,4.93,23.29-7.61,41-31.21,44.12-11.75,1.55-23.59,1.53-35.4,2-14.16.53-28.3,1.46-41.88,5.94-12.94,4.28-19,13.36-17.82,26.54a70.13,70.13,0,0,0,4.4,19.4,251.54,251.54,0,0,0,33.46,59.9c1,1.37,2.6,2.49,2.89,5.09-4.6-2.17-8.58-4.56-12.88-6-9.4-3.09-14.76-9.72-18.85-18.39-8.93-18.94-16.67-38.16-16.34-59.53.07-4.31-1.4-4.71-4.95-4.7-35,.11-70,.06-105,.1-1.56,0-3.27-.58-5.66,1.34C582.9,831,679.23,889.2,806.24,887.82c123.66-1.34,217.29-59.5,284.57-162.43-1.32-.76-1.59-1-1.87-1Q1042,724.28,995,724.24ZM600.63,783.77a16.48,16.48,0,0,1-16.5-16.91,16.55,16.55,0,0,1,33.1,0A16.61,16.61,0,0,1,600.63,783.77Zm186.55-70.91c-12,.36-23.93,1.33-35.65,4.12-17.89,4.26-24.52,14.69-21,32.75,1.78,9.06,5.32,17.45,9.23,25.73a325.58,325.58,0,0,0,27.69,47l-21-10.07a5.75,5.75,0,0,1-2.43-2.43c-10.8-18.19-19-37.36-21-58.65-2.06-21.71,9-38.1,30.13-44.55a239.72,239.72,0,0,1,54.89-9.8c18.49-1.2,26.11-10.74,28.83-29.16,1.13-7.69-2.47-13-9.84-15.91-3.39-1.34-6.89-2.42-10.34-3.65-18.5-6.59-25.35-27.46-14.42-44.05,4.11-6.24,9.88-10.74,16-14.91,7.77-5.33,8.83-9.16,4.77-17.65-1.5-3.14-3.17-6.21-4.84-9.27-4.58-8.37-3.6-16.89,2.82-23.93.78-.86,1.64-1.66,2.47-2.47,7.35-7.18,7.71-13.83.8-21.74a378.89,378.89,0,0,1-27.32-35c-1.5-2.19-2.84-4.51-4.45-6.62-8-10.62-8-22.14-4-34.13,5.33-15.89,3.42-30.93-5.95-44.73-10.19-15-20.67-29.82-33-43.25a121.24,121.24,0,0,0-60.19-36.37,13.2,13.2,0,0,1-1.47-.28c-1.13-.47-3.05-.36-2.67-2.26.43-2.15,2.11-.94,3.24-.71a145.45,145.45,0,0,1,42.32,15.75c22.54,12.77,39.58,31.26,54.38,52.08,6.26,8.82,11.94,18,17.46,27.33,7.27,12.24,8.24,25,3.66,38.37-1,2.82-1.81,5.69-2.74,8.53-3.65,11.23-2.58,21.3,5.51,30.72,9,10.48,17.06,21.73,25.67,32.54a43.09,43.09,0,0,1,7.39,13.46c2.83,8.64,1.3,15.83-6,21.89-8.65,7.19-9.69,13.42-4.78,23.32a37.91,37.91,0,0,1,3.79,9.71c1.39,7.24-2,12.4-7,17.08-9.43,8.71-11.4,19.55-6.12,30.81,2.39,5.1,6.74,8.13,11.07,11.23,14.25,10.17,20.56,33.78,13,49.49-5.12,10.71-14.5,15.72-25.61,17.68S798.33,712.54,787.18,712.86Zm25.32,48c1.43,8.79,4.73,16.92,8.44,24.93,7.36,15.91,16.47,30.74,26.43,45.27-6.41-3.08-12.81-6.17-19.24-9.2a6.39,6.39,0,0,1-2.8-2.74c-9.67-16.49-16.57-33.9-19.49-53C802,741,819.48,726.5,835.76,721.85c17.52-5,35.43-7.3,53.52-9.09,16.64-1.64,22.8-14.91,23.4-29.35.23-5.76-2.82-10.17-8.53-12.23-3.43-1.24-6.93-2.34-10.37-3.55-17.25-6.06-23.78-25.78-13.68-41.27,3.71-5.69,8.86-9.87,14.38-13.67,8.39-5.76,9.16-8.71,4.74-17.9-1.15-2.4-2.36-4.76-3.66-7.08-4.94-8.87-4-16.93,3-24.14,9.1-9.42,9.13-14.1.34-24.12a378.25,378.25,0,0,1-28.59-37.81c-6.37-9.43-6.92-19.28-3.41-29.51,5.82-16.95,3.16-32.31-7.23-46.72-9.44-13.1-18.33-26.59-29-38.81-14.84-17.06-33-28.75-54.93-34.47-.64-.17-1.32-.22-1.95-.41-1-.29-2-.78-1.72-2,.28-1.51,1.49-1,2.38-.83,2.28.46,4.54,1,6.8,1.57,31.06,7.91,54.74,26.44,74,51.4a309.35,309.35,0,0,1,27,41.35c5.42,10,5.52,20.74,2.25,31.49-1.79,5.88-3.84,11.67-4.74,17.8a20.79,20.79,0,0,0,3.8,16q13.08,18,27.23,35.13a39.2,39.2,0,0,1,7.1,13.06c2.55,7.78.89,14.21-5.47,19.71-8.65,7.49-9.45,12.56-4.48,22.8,5.68,11.69,4.91,16.36-4.18,25.24-11.32,11.06-10.45,28.23,3.23,36.87,11.71,7.39,15.41,18.11,17.13,30.45,3,21.61-13,33.64-30.18,35-13.11,1.06-26.28,1.34-39.41,2.1a111.21,111.21,0,0,0-24.11,3.84C815.83,736.84,810.07,746,812.5,760.85Z" transform="translate(-320.33 -71.15)"/><path class="a" d="M737.32,549a97.87,97.87,0,0,0-6.15-12.5c-2.43-4.19-3.82-8.58-3.22-13.32.41-3.31-.44-4.15-3.79-4.14q-125.89.13-251.8,0c-3.21,0-4.1.9-4.38,4.1a351.05,351.05,0,0,0,3.61,88.07c.67,4.07,2.33,4.76,6.1,4.76q114.66-.19,229.32-.1h5.24c-.61-1.8-1.11-3.18-1.54-4.58-5.22-16.78-1.45-29.81,12-41.07,3.31-2.76,7-5.14,10.44-7.69C738,559.06,739.55,554.5,737.32,549Z" transform="translate(-320.33 -71.15)"/><path class="a" d="M741.73,492.21a22.67,22.67,0,0,0-5.33-8.9,340,340,0,0,1-35.5-47.52c-2.54-4.17-4.88-8.53-4.52-13.5.33-4.54-1.13-5.65-5.66-5.64q-94.92.24-189.85,0c-4,0-6.07,1-7.69,4.92a355.7,355.7,0,0,0-23.81,87.27c-.58,4.08.86,4.6,4.44,4.59q63.2-.18,126.4-.08,62.94,0,125.89.06c3.23,0,5.73-.51,7.65-3.43,1.25-1.9,3.2-3.36,4.91-4.94C742.56,501.45,743,497,741.73,492.21Z" transform="translate(-320.33 -71.15)"/><path class="a" d="M737.57,629.88c-5.3-1.91-10.73-3.59-15.82-6a21.49,21.49,0,0,0-9.51-2.14q-58,.09-115.92,0-59,0-117.92,0c-2.53,0-5-.59-4,3.68a344,344,0,0,0,34.18,90.08,5.1,5.1,0,0,0,5.1,3q56.7-.12,113.42,0c2.29,0,3.45-.64,4.42-2.93,6-14.17,17-22.63,31.52-26.83a262.32,262.32,0,0,1,56.89-9.9c17.36-1.08,26.56-9.64,30.07-26.67C752.47,640.36,748.89,634,737.57,629.88Z" transform="translate(-320.33 -71.15)"/><path class="a" d="M693.55,357.05c-7.74-12-16.22-23.56-25-34.87-15-19.28-33.42-33.64-56.83-41.29-3-1-5.15-.78-7.73,1.14a343.34,343.34,0,0,0-63,60.24,336.89,336.89,0,0,0-42.87,68.6H688.59c7.95,0,8,0,10.6-7.52C704.81,387,702.8,371.4,693.55,357.05Z" transform="translate(-320.33 -71.15)"/><path class="a" d="M1135,508.94a351.07,351.07,0,0,0-24-87.74c-1.42-3.4-3.16-4.55-6.94-4.55q-91.93.23-183.87.11h-6.1c15.38,16.13,26.37,33.74,37.43,51.37,8.25,13.16,10.18,26.47,4.42,40.8-1.46,3.64-.64,4.51,3.17,4.51q85.93-.13,171.88,0C1134.61,513.46,1135.46,512.45,1135,508.94Z" transform="translate(-320.33 -71.15)"/><path class="a" d="M1136.57,524.67c-.37-4.86-2-5.7-6.56-5.66-28.49.24-57,.12-85.47.12-28.83,0-57.65.11-86.47-.12-4.33,0-5.51,1.45-5.42,5.31A19.23,19.23,0,0,0,956,535.57c8.1,11.42,16.73,22.41,25.62,33.21A37,37,0,0,1,988,579.43c3.55,9.55,2.35,14.45-5.28,21.27-3.21,2.87-5.52,6.2-6.18,10.52-.49,3.21.26,4.77,4.13,4.76q73.73-.19,147.45,0c2.91,0,3.87-.77,4.39-3.7A350.13,350.13,0,0,0,1136.57,524.67Z" transform="translate(-320.33 -71.15)"/><path class="a" d="M1125.58,621.73q-70.42.18-140.86.08h-4.49a5.58,5.58,0,0,0,.11,1.78c4.38,8.59,2.41,15.65-4.9,21.65a19.68,19.68,0,0,0-6.29,10c-2.67,9.25.64,18.45,8.89,24.55,4.8,3.55,10.08,6.54,12.39,12.59,2.63,6.89,4.58,14,4.39,21.35-.11,4.11,1,4.91,4.86,4.89q45-.23,89.91,0c3.62,0,5.23-1.38,6.82-4.3a342.16,342.16,0,0,0,33.23-87.77C1130.62,622.3,1129.49,621.72,1125.58,621.73Z" transform="translate(-320.33 -71.15)"/><path class="a" d="M1108.54,218.12c-2.3-2-3.76-1.6-5.72.56-5.47,6-11.17,11.83-16.79,17.72-5.92,6.2-5.94,6.21-.2,12.53a63.69,63.69,0,0,0,4.62,4.53,11,11,0,0,0,9.75,2.52c8.69-1.52,18-12.52,18.08-21.38C1118.41,227.11,1113.71,222.52,1108.54,218.12Z" transform="translate(-320.33 -71.15)"/><path class="a" d="M1152.82,293.84c-.17-.15-.8.22-1.22.35l.9,1.14C1153,294.9,1153.45,294.39,1152.82,293.84Z" transform="translate(-320.33 -71.15)"/><path class="a" d="M506.29,253.59c-1.73-8.67-12.72-17.91-21.52-17.91-7.49-.05-12,4.7-16.42,9.87-1.82,2.15-1.47,3.59.48,5.4,5.85,5.41,11.56,11,17.3,16.49,6.85,6.58,6.83,6.57,14-.08C504.17,263.63,507.52,259.73,506.29,253.59Z" transform="translate(-320.33 -71.15)"/><path class="a" d="M687.15,932.23c-2.08-14-13.26-25-28.12-28.22-14-3.07-26.29,1.87-34.56,14.13a56.45,56.45,0,0,0-9.85,30.9c-.42,20.84,15.26,37.63,38.68,38.21,5.51.18,13.23-2.75,19.06-9.23C684,965,689.76,949.85,687.15,932.23Z" transform="translate(-320.33 -71.15)"/><path class="a" d="M749.89,113.9c-8.44-8.82-18.87-11.42-30.61-8.44-11,2.79-19.1,9.18-21.39,20.61-3.23,16.13.28,31,12.31,42.63,10,9.67,22.19,11.13,34.73,5.9,12.22-5.09,16.7-15.44,16.63-29.4C761.16,134.34,758.54,123,749.89,113.9Z" transform="translate(-320.33 -71.15)"/><path class="a" d="M1234.74,413c-5.35-10.43-14.13-15.56-31.79-15.33-9.42.09-24.86,8.14-32,19.69-11.14,18.08-1.9,41.83,17.93,46.09,14.62,3.14,35.9-5.08,44.34-17.37C1240.58,435.44,1240.48,424.21,1234.74,413Z" transform="translate(-320.33 -71.15)"/><path class="a" d="M386.2,446a30.82,30.82,0,0,0-8.44-1.94c-12.81-.29-21.94,9.79-20.61,21.12.28,2.39,1.85,2.4,3.42,2.74,8.09,1.78,16.19,3.52,24.28,5.32s8,1.8,10.34-5.78c.3-1,.61-1.89.86-2.86C398.48,455.07,395.49,449.39,386.2,446Z" transform="translate(-320.33 -71.15)"/><path class="a" d="M449.94,376.94A22.73,22.73,0,0,0,414.5,390.7c-.33,1.59.32,2.05,1.5,2.55,8.85,3.78,17.67,7.64,26.55,11.35a5.58,5.58,0,0,0,6.82-1.48A27.46,27.46,0,0,0,456,388.33,13.38,13.38,0,0,0,449.94,376.94Z" transform="translate(-320.33 -71.15)"/><path class="a" d="M406.7,365a27,27,0,0,0-7.56-1.78c-7.63-.14-14.7,6.22-15.6,13.69a2.26,2.26,0,0,0,1.51,2.71q11.35,5,22.75,10a2.52,2.52,0,0,0,3.15-.37C419.22,381.38,417.18,369.64,406.7,365Z" transform="translate(-320.33 -71.15)"/><path class="a" d="M425.16,615.79a34,34,0,0,0-1.24-7.84c-1.57-5.32-4.92-9.12-10.64-9.94-13.38-1.93-26.67,8.89-25.34,20.47.18,2.8.34,4.63.39,6.45.13,4,1.49,5.81,6.07,4.8,7.6-1.69,15.37-2.63,23-4.06C424,624.45,425.48,622.49,425.16,615.79Z" transform="translate(-320.33 -71.15)"/><path class="a" d="M380.87,614.32c-5.67-4.23-11.8-4-17.89-1.17-5.55,2.56-8.84,6.86-8.82,14-.12,1.63.56,3.86,1.14,6.12.5,2,1.53,2.52,3.63,2.14,7.67-1.37,15.39-2.49,23.08-3.79,1.2-.2,2.66-.14,3.16-1.85C386,627,383.13,616,380.87,614.32Z" transform="translate(-320.33 -71.15)"/><path class="a" d="M390.43,536.91c0-2-.58-2.72-2.58-2q-13.78,4.86-27.57,9.66l-.15,1.18,30.27,11.36C390.4,549.86,390.34,543.38,390.43,536.91Z" transform="translate(-320.33 -71.15)"/><path class="a" d="M1011.5,197.73,1031,210.08c2.27-10.9,4.43-21.24,6.91-33.11Z" transform="translate(-320.33 -71.15)"/></svg>