<svg class="cloud" xmlns="http://www.w3.org/2000/svg" viewBox="0 0 924.09 738.29">
<path d="M325.48,343.38c-13.88-24.8-4-60,20.83-73.9s60-4,73.91,20.78c4.48,8,8.23,18.23,17.17,20.27,29.19,6.65,53,32.46,57.35,62.09,18-10.62,42.11-10,59.62,1.45,10.34-22.52,35.17-37.53,59.91-36.23s47.86,18.83,55.79,42.32c3.42,10.14,16.55,13.21,22.88,21.84,4.1,5.59,4.88,12.87,7.35,19.35s8.21,12.93,15.07,11.92c12.53-1.86,23.21,14.81,16.28,25.42l43.11,7.09c-58.39,8.43-117.63,8.36-176.63,8.27-9.44,0-17.22,6.89-25.12,12.06s-19.16,8.57-26.19,2.27c-14.71-13.18-36.4-13.92-56.15-13.95-23.94,0-48.64.07-70.67,9.43-22.48,9.55-47-9.78-71.38-9.39q-127.78,2-255.44-6.51c3.68-7.66,14.59-6.61,23.07-6.06s20-5,16.93-12.92c-2.4-6.24,4.93-11.91,11.45-13.41s14.3-2,17.93-7.64c4.8-7.42,15.33-7.58,24.17-7.82s19.78-3.27,21.25-12c3.08-18.3,18-34,36.17-38,14.42-3.16,26.43-12.74,39.23-20.12S312,337.34,325.48,343.38Z"/><path d="M481.65,324.9c-1.35-1.37-.82-3.65-.11-5.44,9.06-22.9,33-39,57.67-38.79s48.3,16.85,56.89,39.93c1.27,3.41,1.4,8.52-2.13,9.36A70.38,70.38,0,0,0,553.8,356.6c-3,4.12-9.37,2.24-14.21.62a54.47,54.47,0,0,0-38.12,1.49A79.25,79.25,0,0,0,481.65,324.9Z"/><path d="M168.76,349.68c7.35,1.74,11.17-8.16,13.27-15.41,6.5-22.5,27.72-40,51.06-42s47.27,11.43,57.61,32.45c2.12,4.31,2.27,11.46-2.51,12-15.94,1.63-25.83,20.57-41.75,22.37a53.05,53.05,0,0,0-41.93,31.17c-2.53,5.9-4.27,12.7-9.49,16.46-3.58,2.58-8.18,3.21-12.56,3.73-29.16,3.48-58.85,5.83-87.77.73a96.15,96.15,0,0,1,35-4.92c-7.06-7.94-3.69-22.5,6.12-26.54,7.28-3,10.72-11.09,14.6-18S161.1,347.87,168.76,349.68Z"/><path d="M275.48,293.3c-3.58-2.55-1-8.17,1.87-11.46s6-8.33,3.06-11.55a19.64,19.64,0,0,1,14.4-33.05c6.17,0,9.61-6.84,12.52-12.29,13.3-24.95,45.78-37.76,72.54-28.62s44.6,39.16,39.85,67c-.48,2.8-3.13,6.34-5.3,4.51-19.56-16.55-49.45-19.58-71.94-7.31s-36.1,39.06-32.77,64.46c.49,3.71-.21,9.2-3.94,8.85A83.21,83.21,0,0,0,275.48,293.3Z"/><path d="M431.7,283.26c3.44-6.18,12.59-5.78,19.05-2.92,2.91,1.29,6.79,2.72,8.84.29,10.05-11.93,29.82-14,42.14-4.43,1.44,1.13,1.31,3.48.25,5a12.73,12.73,0,0,1-4.34,3.28,48,48,0,0,0-17.39,17.28c-2.13,3.65-4.17,7.93-8.18,9.3-5,1.69-10-2-14.7-4.33-6-2.9-12.84-3.71-18.62-7S428.47,289.05,431.7,283.26Z"/><path d="M176.84,311a6.38,6.38,0,0,1,1.82,2.38c1.1,3-1.8,5.73-3.39,8.47-2.74,4.72-1.9,11.24-5.7,15.14-3.51,3.59-9.39,3.31-13.76,5.79-3.69,2.1-7.18,6.33-11.19,4.93a7.71,7.71,0,0,1-3.21-2.52c-8-9.45-7.18-25.08,1.72-33.66S167.68,302.73,176.84,311Z"/><path d="M221.28,271.48a9.91,9.91,0,1,1,14.7,1.25A10.27,10.27,0,0,1,221.28,271.48Z"/><path d="M606.31,300a9.65,9.65,0,1,1-2.39,6.28A9.73,9.73,0,0,1,606.31,300Z"/></svg>