<svg class="cloud" xmlns="http://www.w3.org/2000/svg" viewBox="0 0 530.42 438.2">
<path d="M221,182.37c3.39-3.36,4.54-8.3,6.51-12.65A33.49,33.49,0,0,1,285.28,164c1.09,1.52,2.07,3.55,1.14,5.16-.78,1.35-2.51,1.73-3.84,2.54s-2.25,2.93-.94,3.78c11.68-6.87,27.8-5.06,37.67,4.23S332,205,325.82,217.09c1.93-7.6,12.13-10,19.54-7.41s13.23,8.33,20.14,12c6.21,3.34,13.34,5.05,18.87,9.42s8.83,13,4.38,18.47c-2.22,2.72,2.43,5.76,5.91,6.24l34.6,4.81c2.39.33,2.74,4.07,1,5.72s-4.43,1.74-6.85,1.74L83.6,268c-3.08,0-3.73-5-1.36-7s5.82-1.72,8.89-1.42,6.57.43,8.8-1.7c1.56-1.48,2.12-3.73,3.47-5.39,3.46-4.26,10-3.12,15.52-2.75s12.74-2.6,11.74-8c-1.26-6.78,5.42-12.4,11.86-14.84s13.85-3.67,18.41-8.84c6.18-7,18.52-7.17,24.88-.32-5-7.55-9.94-17.62-4.67-25C189.46,181.21,210.88,192.41,221,182.37Z"/><path d="M397.57,233.83a9.84,9.84,0,0,1,1.59-4.87c3.42-5.23,12.26-5.52,16-.52s1,13.41-5,15.24S397.26,240.08,397.57,233.83Z"/><path d="M217.87,178c2.7-1.74,2.46-6.48-.39-7.94s-6.84,1.11-6.68,4.31S215.18,179.71,217.87,178Z"/><path d="M195.23,168c3.55-2.09,8.86,1.06,8.72,5.19s-5.63,6.92-9,4.6C191.69,175.63,191.87,170,195.23,168Z"/></svg>