<svg class="cloud" xmlns="http://www.w3.org/2000/svg" viewBox="0 0 696.17 501.32">
<path d="M378.23,204.21c1,5.6,3.75,13.23,9.32,12,28.24-6.23,59.76,10.8,70,37.84a59.39,59.39,0,0,0,27.67,31.2,32.83,32.83,0,0,0-15.41,24,28.31,28.31,0,0,1,51.42-.93c-6-11.93,8.1-26.29,21.39-24.93s23.42,12.61,29.89,24.31c3.69,6.66,11.58,9.44,18.34,12.94s13.63,9.92,12.19,17.39a72.13,72.13,0,0,1,31.4,4c-6.06,2.87-13,3.16-19.67,3.4q-276.22,9.8-552.67-.69c-1.5-2.27,1.24-5.25,3.95-5.52s5.38.92,8.11.87c6.36-.1,10.57-6.44,13.61-12q6.47-11.86,12.92-23.73c8-14.69,30.8-18.27,42.91-6.73,11.6-12.55,23.56-25.7,28.46-42.07,8.39-28,38.41-47.4,67.59-45s55.06,25.37,62.52,53.68a67.33,67.33,0,0,0-83.59-61.82c-2.71.68-4.33-3-4.3-5.8.18-16.58,20.32-29.37,35.41-22.48,8.65,3.95,17.61-4,25.18-9.75a65,65,0,0,1,103.33,39.87Z"/><path d="M493.57,269A12.79,12.79,0,0,1,499.4,257c6.2-4,15.64-1.1,18.59,5.64s-1.35,15.61-8.46,17.48S494.31,276.32,493.57,269Z"/><path d="M478.92,262.08c-5.92-1.68-8.53-10.15-4.57-14.86,4.25-5.07,14-3.09,15.93,3.23S485.28,263.88,478.92,262.08Z"/></svg>