<svg class="cloud" xmlns="http://www.w3.org/2000/svg" viewBox="0 0 1125.06 681.67">
<path d="M498.1,363.47c5.35-20.66,23.54-37.39,44.58-41s43.77,6.09,55.71,23.78c3.69,5.45,8.14,12.48,14.65,11.48,18.11-2.79,37.32,9.48,42.41,27.07a26.84,26.84,0,0,1,37,34,370.12,370.12,0,0,1,50.18,6.59c-20,5.68-41,6.38-61.73,6.95q-225.25,6.27-450.64,0c-21-.57-42.07-1.25-62.55-5.78,2.42-4.58,8.93-4.1,14.11-4.36s11.55-5.07,8.62-9.34c-4.4-6.42,2.83-14.51,9.72-18.11s15.56-8.13,15.18-15.89c-.57-11.61,18.79-16.48,18.32-28.09-1.58-38.25,28-75.37,65.63-82.4s78.6,16.94,90.93,53.18c5.26,15.45,32.85,13.52,37,29.31,1.15,4.39,6.43,6.35,11,6.16s9-1.82,13.49-1.58c9,.47,15.84,7.87,23.63,12.39S495.84,372.19,498.1,363.47Z"/><path d="M662.64,347a30.13,30.13,0,0,1,26.41-4c3.48,1.15,5.84-3.41,7-6.88,7-20.07,30.49-32.75,51.08-27.52S782.4,336.26,779,357.22c8.29-4.05.07-19,6.73-25.37,2.17-2.09,5.42-2.59,8.44-2.57,15.74.16,30.25,13.5,31.71,29.17.26,2.77.18,5.66,1.33,8.19s4.09,4.57,6.68,3.55c14.21-5.58,27.52,11.08,42.69,12.73,5.37.58,13.36,1.69,12.41,7q-88.23,7.43-176.83,8.5c-4.4.05-9.89-.63-11.35-4.78a31.63,31.63,0,0,0-29.58-20.6c-17.74.3-27.45-28.3-44.82-24.72-11.25,2.32-19.91-9-28-17.19A65.4,65.4,0,0,0,489.72,357c-1.23,3.79-6.81,4-10.17,1.9s-5.64-5.69-9-7.81c-5.08-3.18-11.54-2.52-17.51-3a43.76,43.76,0,0,1-33.23-20.38c3.25-3.67,9-3.05,13.89-3s11.12-2,11.25-6.94c.59-21.55,21.15-40.46,42.67-39.25-7.77-19.74-1.67-44.1,14.48-57.84s41.18-15.87,59.42-5,28.35,33.82,24,54.58c-.78,3.76,5,4.66,8.8,4.07A60.4,60.4,0,0,1,662.64,347Z"/><path d="M472.21,257.56a12.47,12.47,0,0,1-3.22,10c-4.54,4.83-13.19,4.87-17.78.08s-4.16-13.43.86-17.75a12.25,12.25,0,0,1,20.14,7.66Z"/></svg>