<svg class="cloud" xmlns="http://www.w3.org/2000/svg" viewBox="0 0 576 416.71">
<path d="M302.17,199.76c12.73-15.56,37-20.15,54.57-10.31s26.27,33,19.62,51.94a20.38,20.38,0,0,0,6.82-19.24c11.87-1,22.34,12.67,18.22,23.85-1.35,3.64,3.18,6.71,7,7.33s8.49.83,10.38,4.22a21.85,21.85,0,0,0,21.73,10.72c-.51,3-4,4.32-7,4.29s-6.05-.86-8.92,0c-6.84,2.06-11.69,13-17.81,9.31-11.29-6.8-27.37,11-37.61,2.7-14.75-12-35.82-10.79-54.73-9-3.54.33-7.42.82-9.84,3.42-15,16.11-43.68,16.45-59,.69-4.14-4.24-10.75-4.5-16.67-4.48l-36.26.09c-4,0-8.71.33-11,3.63-7.14,10.18-24.64,10.26-31.88.16-2.39-3.32-7-3.87-11.11-4.06-34.13-1.6-68.62,1.25-102.29-4.57a32.33,32.33,0,0,1,23.47-4.2,12.43,12.43,0,0,1,19.94-14.35c5.31,5.38,14.69.43,18.81-5.91s6.69-14.43,13.43-17.86c5.45-2.78,12-1.58,18-.32,1.22-1.4-.32-3.6-2-4.27s-3.79-.75-5.12-2-1.45-3-1.53-4.75c-1-22.44,12.5-44.87,32.79-54.5s46.21-5.89,63,9.08c-.17-6.53-6.16-11.32-12-14.23s-12.44-5.22-16.22-10.55c4.21-11.15,23.57-5.25,31.09-14.51,15.74-19.38,44.17-27.31,67.68-18.87s40.39,32.65,40.2,57.62c-.05,6.92-7.53,11-13.79,13.92S300.59,193,302.17,199.76Z"/><path d="M337.56,158.65c5.09-1.83,11,4,9.31,9.13a7.58,7.58,0,0,1-10.43,4c-4.79-2.72-4.05-11.25,1.12-13.11Z"/><path d="M418,244.19a5.62,5.62,0,0,1-6.43,5.12c-4-.79-5.49-6.94-2.3-9.48s8.85.29,8.73,4.36Z"/></svg>