<svg xmlns="http://www.w3.org/2000/svg" class="fact_image" viewBox="0 0 366.9 319.44">
<path d="M560.49,703.44V402.39c0-9.69,6.18-16.85,15.77-18.3a16.54,16.54,0,0,1,2.44-.09H909.21a17.7,17.7,0,0,1,18.18,18.17q0,150,0,300.08v1.19Zm11.92-260.21V691.69h343V443.23Zm343.07-11.94c0-.4.08-.67.08-1,0-9.38,0-18.76,0-28.14,0-4-2.55-6.41-6.71-6.41H579.08c-4.32,0-6.75,2.43-6.75,6.75q0,13.71,0,27.4c0,.44,0,.87.07,1.35Z" transform="translate(-560.49 -384)"/><path d="M897.8,549.7h5.83v11.82h-144a3.18,3.18,0,0,0-1.53.18,1.66,1.66,0,0,0-.83,2.22,87.95,87.95,0,0,1-12,78.49c-13.11,18.19-30.58,30-52.43,35.16A88.59,88.59,0,0,1,620,662.32a88,88,0,0,1-30.74-41.71,88.48,88.48,0,0,1,9.67-78.29,89.21,89.21,0,0,1,31.77-29.11l2.24-1.25c.07,0,.11-.12.21-.22-1.8-4.85-3.63-9.71-5.41-14.59-.29-.8-.85-.72-1.46-.72h-42V484.66c.42,0,.81-.06,1.21-.06q24.46,0,48.92,0a1.53,1.53,0,0,1,1.71,1.25c2.57,6.94,5.19,13.86,7.79,20.78.06.15.13.29.27.62,20.85-7,41.59-6.57,62,1.66s35.5,22.54,45.94,42.13c1-1.73,2.5-1.32,3.92-1.32H767.6V514.24h35.54v35.38h11.73V490.56h35.61v59.05H862.3V455.07h35.5ZM678.93,514.51V667.67c49.62-3.83,80.42-52.55,68.42-95l-28.53,28.54-8.48-8.59,17.57-17.54c4.84-4.84,9.69-9.67,14.51-14.54a1.5,1.5,0,0,0,.39-1.28,76.85,76.85,0,0,0-38-38.1A77.68,77.68,0,0,0,678.93,514.51Zm-12,82.64H596.45c2.18,36.79,33.33,68.25,70.47,70.45Zm-70.45-12.09h70.42V514.53a73.65,73.65,0,0,0-18.58,3.84l6.52,17.39-11.13,4.17-6.33-16.83C613.66,535,597.76,560.39,596.47,585.06Zm289.41-35.43V466.91H874.23v82.72Zm-47.34,0V502.48H826.93v47.16Zm-59-23.52V549.6h11.61V526.12Z" transform="translate(-560.49 -384)"/><path d="M903.67,597.14v82.63H797.33V597.14ZM891.83,609H809.09v59h82.74Z" transform="translate(-560.49 -384)"/><path d="M637.35,472.72h-53.1V461h53.1Z" transform="translate(-560.49 -384)"/><path d="M649.33,461H661v11.75H649.33Z" transform="translate(-560.49 -384)"/><path d="M631.59,407.74h11.7v11.68h-11.7Z" transform="translate(-560.49 -384)"/><path d="M595.92,407.77v11.66H584.25V407.77Z" transform="translate(-560.49 -384)"/><path d="M607.9,419.43V407.77h11.67v11.66Z" transform="translate(-560.49 -384)"/><path d="M880,620.79V632.5h-59V620.79Z" transform="translate(-560.49 -384)"/><path d="M880,644.45v11.71h-59V644.45Z" transform="translate(-560.49 -384)"/></svg>