<svg xmlns="http://www.w3.org/2000/svg" class="fact_image" viewBox="0 0 216.19 236.82">
<path d="M558.8,289.14c-.08,1.37-.14,2.42-.13,2.16,3.25,2,5.87,3.57,8.41,5.23,2.85,1.88,8.53-.1,10.07-3.15.73-1.43,2.59-3.29,3.89-3.26,10.14.26,20.28.81,30.39,1.58,1.66.13,3.19,1.81,5.28,3.08.95-.53,3.06-2.75,4.63-2.41,6.61,1.4,14.32-1.61,19.76,4.57a4.18,4.18,0,0,1,1.12,2.4c.35,15.49.76,31,.83,46.48,0,4.31.53,9.38-4.48,10.64L635.38,366c6,10.15,6.6,21.27,3.34,32.9,4.51-.75,4.5,2.83,4.48,7.05-.13,23.66-.06,47.33-.06,71.1l-20-3.41.39,2.35c-1.65,1-3.32,2.87-4.95,2.84-6.13-.1-12.23-.87-18.36-1.27a55.83,55.83,0,0,0-6.72.12c-6.79.43-13.61.65-20.36,1.46-6.52.77-12.94,2.27-19.44,3.22a10.14,10.14,0,0,1-4.52-.87c-5.56-2-11-3-16,2.43-2.08-2.66-4-5.08-5.42-6.9-6.26-.38-12.12-1-18-1-13-.16-26-.06-38.94-.05-1.5,0-3,.11-4.5.12-13,.11-13.38-.29-13.4-13,0-2.83,0-5.67-.2-8.49-.69-7.79-1.36-15.33,3.07-22.66,1.91-3.16,1.73-7.68,2.1-11.62.14-1.53-.29-3.86-1.34-4.63-6.24-4.54-4.51-11-4.29-17,.14-3.79-1.06-7.75,3.75-10.69,3.06-1.87,1.55-6.2-.1-9.58a21.7,21.7,0,0,1-1.83-7.41c-.51-5.39.29-11.09-1.18-16.15-3-10.44-2.22-20.59-.82-31.08.93-7,.18-14.16.15-21.26,0-1.82-.2-3.65-.18-5.48,0-2.75,1.13-4.14,4.25-4.11,13,.13,26,0,39,.05a11.49,11.49,0,0,1,4.34.85c9.17,3.91,17.84,1.83,26.58-1.68a37.72,37.72,0,0,1,11.28-2.84C544.52,288.81,551.54,289.14,558.8,289.14Zm-86.59,37.47c3.49,4,6.49,7.78,9.8,11.25,30.51,32.06,62.25,63,90.91,96.77,9,10.63,18.38,16.29,32,14.24,2-.3,4.42-1.41,5.46-2.95,6.39-9.46,8.37-20.49,10.4-31.45a3,3,0,0,0-.83-2.54c-6.1-3.83-9.89-11.09-17.94-12.06-.86-.1-1.64-1.05-2.42-1.65-4.35-3.33-8.54-6.88-13-10q-21.65-14.76-43.5-29.21c-10.7-7-21.6-13.75-32.4-20.62a19.54,19.54,0,0,1-2.41-1.68c-4-3.47-7.83-7.08-11.89-10.43-6.06-5-12.45-6.87-19.43-1.51C475.94,325.59,474.48,325.77,472.21,326.61ZM525.9,443l-39-37.78c-3.47,8.18-6.46,15.51-9.68,22.73-2.62,5.88-3,11,3.45,14.73a16.47,16.47,0,0,1,3.55,3.48c3.91,4.36,8.92,6.13,14.43,4.76C507.43,448.73,516.07,445.89,525.9,443Zm76.57-84.45c1.35-6.27,2.53-11.28,3.51-16.33,2.22-11.48,1.47-13.16-8.94-18.06a11.12,11.12,0,0,0-6.53-.43c-4.38.89-8.66,2.32-13,3.5-3.85,1-7.71,2.07-12.3,3.3C577.18,341.24,588.91,350.59,602.47,358.55Z" transform="translate(-450.88 -289.03)"/></svg>