<svg xmlns="http://www.w3.org/2000/svg" class="fact_image" viewBox="0 0 427.33 637.06">
<path class="a" d="M923.07,413.47c-3.62-.25-5.93-3.16-9-4.44-1.35-.56-2.27-2.53-4.19-1.43.07-.21.15-.41.23-.61h-.6l.5.55a155.64,155.64,0,0,0,12.75,21.34,64.91,64.91,0,0,1,11.11,29.44c2,16.52,6.15,32.68,9.26,49,1,5.31,5.23,8.35,7.27,13.14-4.41-2.81-9.06-5.54-12.09-9.86s-5-9.15-7.85-13.62c-.51,22.2.22,44.16,7,65.53l-1.2.44-11.88-18.22c-11.67,23.47-12,48.41-12.07,73.49-1.51-8.63-3-17.26-4.71-27-3.52,10.49-5.85,20-5.48,30.23a227.6,227.6,0,0,1-1,30.76c-2.8-6.75-6.27-13.32-8.19-20.31s-2.39-14.61-4.43-22.11c-1.22,4.49-2.74,8.93-3.61,13.5-3.7,19.26-10.87,36.19-25.61,50.34-20.84,20-35.71,44.58-47.25,71-3.29,7.52-7.86,13.73-14.64,18.39a50.62,50.62,0,0,0-6.92,5.73C777,782.11,760.83,791,743.31,797.84c-2.33.91-4.36,1.34-6.62.26a1.67,1.67,0,0,0-.45-.21c-23-4.48-39.17-20.32-56.7-33.9a12.3,12.3,0,0,1-2.63-3.57c-3.28-5.6-6.8-11.08-9.67-16.88-12.75-25.75-29.88-48.32-49.72-68.92a48.76,48.76,0,0,1-10.23-15.77c-2.17-5.39-4.59-10.69-7.08-16-4.42-9.35-8.12-18.91-9.69-29.21-.29-1.92-.4-4-2.53-6.06-4.12,15.07-8.17,29.85-12.22,44.64l-.81,0q-2.46-29.43-4.91-58.88h-.69l-4.68,27-.95.11L553.56,544l-12.65,19.18L540,563l7.32-66.13-1.06-.42q-11.24,13.49-22.46,27L523,523c4-14,8.28-27.87,11.92-41.94,5-19.38,11.64-38.09,20.86-55.91,3-5.81,7.52-10.55,10.54-16.29.2-.35.65-.8.56-1-.36-.82-.91-.29-1.39,0-3.74,1.62-6.76,4.67-11.81,6.09l14.5-21c11.18-16.13,22.48-32.19,33.5-48.44a90.68,90.68,0,0,1,14.1-16.06q21.39-19.53,42.5-39.38a21.69,21.69,0,0,1,9.38-5.32c5.45-1.48,10.92-3,16.23-4.84a98.13,98.13,0,0,1,36.68-5.47c16.8.55,33.63.17,50.45.1a21.76,21.76,0,0,1,7.79,1.3q20.8,7.67,41.67,15.21a15.39,15.39,0,0,1,6.12,4.07Q855.3,324,884,353.93a27.67,27.67,0,0,1,3.12,3.87q17.33,26.52,34.59,53.1a18.25,18.25,0,0,1,1.22,2.65ZM725,715.45c8.68,2.31,17.35,3.91,26-.13,4.57,1.49,2.79,4.34,1.53,7.1-2,4.35-1.64,11.23.65,13.06s13.49,1.76,16.18.19c8.13-4.72,13.64-12,19.36-19.13,1.83-2.28,2.92-4.64,2.19-7.28-1.37-5-5.06-9.33-3.61-15,.06-.23-.31-.57-.5-.84-1.95-2.9-4-5.76-5.83-8.7a4.2,4.2,0,0,0-4.07-2.2c-6,.18-12,.2-17.94.28q-21.47-.6-42.92,0l-15.41-.23a4.28,4.28,0,0,0-3.21.93c-7.5,6.55-6.8,16.61-10.62,24.74-.28.6.29,1.59.42,2.41,1.59,10.25,9.37,15.93,16.38,22.17a17.91,17.91,0,0,0,15,4.73c4.43-.59,9.6-8.44,7.16-12.27C723.63,721.9,723.67,718.86,725,715.45Zm105.15-68.61c1.92-2.69,3.49-5.76,5.84-8,8.5-8.06,13.08-18.1,16.42-29.11,4.55-15,10.41-29.67,9.92-46.53-9.63,20-19,39.34-28.34,58.72-.63-7.07.53-13.57,2.35-20,4-14.24,8-28.48,11.68-42.82,1.93-7.62.57-15.23-2.17-22.83L815.8,617.58l-1.24-.48c3.16-25.16,13.15-48.55,19.15-73-3.92,4.66-6.67,10.43-11.17,14s-11,5.31-16.6,7.84l-4-.22-1-.06c-9.24-1-18.5-1.67-27.59-3.74-3-.69-13.11,5.1-13.62,8.22-1.06,6.51-3,13.14-1.95,19.67,1.37,8.28,3,16.61,6.4,24.42l-.34.35c-3-.54-2.84.46-1.56,2.65,5.74,9.8,8.57,20,4,31.18-1.14,2.77.6,3.61,2.71,4,9.67,1.79,16.7,7.63,22.86,14.79,3.25,3.78,6.5,7.55,9.54,11.49a16.71,16.71,0,0,0,6.27,4.7c2.39,1.17,3.75,1.37,4.42-1.9.83-4.05,2.38-7.94,1.13-12.18s.1-7,4.18-8.65C823.8,658.06,827.59,653,830.16,646.84ZM660.34,562.33c-2.42-2.25-4.89-4.47-7.26-6.78s-5.63-3.77-6.67-7.2c-3.4-11.22-9.43-21.7-9.6-33.85,0-.27-.62-.53-.93-.78-1.12,1-.92,2.26-1.09,3.36-2.61,16.93-5.3,33.82-15.71,48.19-3.06,4.22-3.34,8.63-2,13.61,2.89,11,3.57,22.65,9.81,32.65,4.19,11.19,7.88,22.62,17.24,31a18.57,18.57,0,0,1,4,5.66c3,6.15,6.91,11.28,13.6,13.73,2.23.81,2.89,2.31,2.35,4.69-1.41,6.19,1.22,11.83,2.27,18.55,5.45-4.67,12.42-6.14,15.68-11.76,5.85-10.1,13.55-17.38,25.07-20.17,3.11-.76,2.59-2.42,1.56-4.73-1.09-2.47-3.38-4.66-2.26-7.85q2.31-6.58,4.42-13.23c.64-2,2-3,4.37-3.92-1.27,5.9-3.75,10.92-3.39,16.55.26,4,3,7.31,6.34,6.21,5.36-1.76,9.86.19,13.37,3.29,4.56,4,8.07,2.71,12.22-.08,3.2-2.15,6.09-4.67,10.82-3.14,6.44,2.08,10.16-2.29,9.06-9.1-1.43-8.74-5.1-16.49-9.65-23.85a27.08,27.08,0,0,1-4.1-17.85c2.06-21,2.45-41.93,10.39-62.13,4.64-11.81,13.24-19.94,20.15-30.2,1,2.37-.24,3.57-.81,4.86-2.09,4.71-4.11,9.46-6.54,14s2.09,6.36,3.43,9.41c1.19,2.69,3.28,1.5,5.12,1,11.57-3.06,23.11-6.21,34.7-9.19,2.67-.69,3.75-1.81,3.65-4.75-.29-8.32-.22-16.64-.29-25,.89-13.73-.8-27.54,1.31-41.23a27,27,0,0,0-1.72-13.59q-4.32-11.91-7.91-24.07c-.91-3-2.45-4.93-5.37-5.86-10.69-6.32-21.41-12.57-32-19-3.46-2.11-7-3.71-11.06-3.93-8.29-.44-16.56-4.33-24.87-.12l-1.55.57-.28-.07-.18.23A153,153,0,0,0,703,396.91l-.5-1.17,11.2-10c-1.87,0-2.73-.21-3.43,0-8.15,2.86-16.56,5.19-24.32,8.87-7.2,3.41-14.43,8.63-18.07,15.2-5.22,9.43-9.59,20.34-10.43,30.93-1.27,16.12.79,32.51,1.44,48.78-.32,9.45-.6,18.9-1,28.35-.09,2.15,0,3.89,2.53,4.63,9,2.67,16.8,7.66,24.21,13.29.25.43.61.87,1.07.43.15-.14-.16-.78-.27-1.2-.8-1.61-1.61-3.22-2.72-5.44,3.6.87,6.77,1.2,9.57,2.4,6.39,2.77,11.37,1.75,15.19-4.29.64-1,1.45-2.3,2.7-2.22,5.66,8.33,6.46,17.39,4.7,26.79s-5.76,17.07-14.75,21.39c-.23-.24-.46-.46-.71-.68a78,78,0,0,1,3.58-7.07c1.42-2.27.7-3.21-1.39-4.57-3.3-2.15-6.25-.69-9,.49C681.92,566.54,671.18,565.6,660.34,562.33Zm-7-42.11c-1.64-17.36-3.25-34.42-4.94-52.41-8.28,11.79-9.05,24.61-11.48,36.92a4.22,4.22,0,0,0,.64,2.84A24.16,24.16,0,0,0,653.38,520.22ZM828.9,467.77c-1.68,17.78-3.3,34.89-5,53.12,5.42-4.13,10-7.64,14.57-11.1,1.31-1,1-2.23,1-3.58C839.11,492.92,836.2,480.31,828.9,467.77ZM645.19,528.91c-.12,10.54,5.64,19.62,15.93,26,6.23,3.87,22.89,7.22,33.12.74C662.24,559.36,654.91,549.26,645.19,528.91Zm177.88,16.57c-2.85.47-3.61,2.61-5.15,3.73-5,3.6-10.25,7.1-16.43,7.43a80.31,80.31,0,0,1-19.81-1.71c-4.53-.9-9.09-.37-13.63,0,9.82,1.92,19.43,4.72,29.48,5.29C807.1,560.77,818.2,554.76,823.07,545.48Z" transform="translate(-523.03 -273.35)"/><path class="a" d="M698.34,819.72c-28.2,24.7-48.77,54.26-61.5,90.69C631.63,895,626.86,881,622.1,867q-7.83-23.15-15.67-46.29a24.87,24.87,0,0,1-1.41-8.78c.65-29,1.45-57.93,6-86.64.33-2.13.77-4.24,1.28-7,4,3.88,7.44,7.57,10,12.07,9.57,16.75,19.21,33.46,28.73,50.25a24.24,24.24,0,0,0,6.45,7.44C671.05,798.44,684.54,809,698.34,819.72Z" transform="translate(-523.03 -273.35)"/><path class="a" d="M861,718.3c2.19,8,2.94,15.8,3.78,23.51,2.6,23.86,3.25,47.84,3.68,71.83a14.76,14.76,0,0,1-.7,4.9q-14.94,44.43-30,88.82a20.86,20.86,0,0,1-1.32,2.45C824,874,803.38,844.44,775.18,819.7c13.71-10.65,27.06-21.09,40.51-31.42a25.26,25.26,0,0,0,6.82-7.76c9.49-16.81,19.14-33.51,28.7-50.28C853.71,725.86,857.19,722.35,861,718.3Z" transform="translate(-523.03 -273.35)"/></svg>