<svg class="moon sky" xmlns="http://www.w3.org/2000/svg" stroke="currentColor" fill="currentColor"  style="height: 200px;"  viewBox="0 0 584.66 616.37">
<path class="a" d="M-19.7,251.59c-147.56,0-267.18-119.62-267.18-267.18,0-119.55,78.52-220.75,186.79-254.87-2.18,0-4.36-.08-6.56-.08-169.93,0-307.68,137.75-307.68,307.68s137.75,307.69,307.68,307.69c121.09,0,225.82-70,276-171.65A266.35,266.35,0,0,1-19.7,251.59Z" transform="translate(414.83 271.04)"/><path class="b" d="M-19.7,251.59c-147.56,0-267.18-119.62-267.18-267.18,0-119.55,78.52-220.75,186.79-254.87-2.18,0-4.36-.08-6.56-.08-169.93,0-307.68,137.75-307.68,307.68s137.75,307.69,307.68,307.69c121.09,0,225.82-70,276-171.65A266.35,266.35,0,0,1-19.7,251.59Z" transform="translate(414.83 271.04)"/></svg>