<svg xmlns="http://www.w3.org/2000/svg" class="mountain" viewBox="0 0 3840 2160">
                <path className="a" d="M1026.08,811.42c-14.56-5.68-29-11.66-43.37-17.78-14.84-6.34-25.21,1.07-35,8.56-10.69,8.19-21.57,13.76-35,13.87-10.33.09-20.78-1-31,.26-15.7,1.91-31.9,3.09-46.26,10.23C824.72,831.92,814,836.85,802.41,840c-20,5.45-39.67,10.83-58,22-16.42,10-33.18,21.35-53.49,23.23-15.18,1.41-30.86.72-45.46,4.39-21.1,5.3-42.49,6.17-63.79,8.64-.32,9.22,6.9,13.4,12.95,17.46,14.93,10,31.14,18.07,47.3,25.76,19.71,9.4,41.47,14.25,60.23,26.14a41.43,41.43,0,0,0,15.89,5.8c9.92,1.51,19.32,4.57,28.74,8.08,14.62,5.44,29.27,5.24,43-3.46,3.9-1.87,7.72-3.92,11.71-5.58,16.51-6.87,32.61-14.42,47.76-24.08,20.73-13.21,36.85-32.51,59-43.89,6.16-3.17,12.64-6.7,17.29-11.64,17.1-18.18,40.34-26.83,61.28-38.32A431,431,0,0,0,1037.72,822C1034.74,817.48,1031.19,813.41,1026.08,811.42Z"/>
                <path className="a" d="M3521.86,812.3c-12.5-9-25.24-15.42-41.37-15.67-21.18-.34-41.1-9.35-62.29-11-7.67-.61-15.86-2.38-21.13-9.46-1.7-5.29-6.23-6.66-10.89-7.45-5.9-1-11.88-1.62-17.78-2.61-26-4.35-51.87-9.32-76.06-20.1-9.47-4.22-19.19-7.14-28.88-10.48-14-4.81-28.54-8.32-41.56-16.31-11.44-7-23.16-14.22-36.73-17h-4c-22.15,3.14-36.77,17-49,34.34a31.9,31.9,0,0,1-18.85,7.81c-12.63.89-21.55,9.76-32.31,14.64a3.86,3.86,0,0,0-1.86,5.12c13.18,6.13,27.82,9.75,40.23,16.25,19.11,10,38.24,12.13,58.68,11.84,5.92-.08,11.84-.61,17.8,1.25,23,7.21,45.49,15.73,69.46,20.26,21,4,42.35,7.61,62.9,14.61,9.78,3.33,20.95,3.45,31.47,3.4,7.45,0,16.29-.37,21.79-5.7,7.63-7.39,16.07-8.57,25.62-7.89,27.64-2.3,54.69,3.35,82,6a7.2,7.2,0,0,0,4.89,3.15c17.29,2.94,34.67,5.47,50.5,13.79,2.14,1.12,4.57.4,6.7-.76l14.41-9.81C3551.38,823.46,3534.93,821.69,3521.86,812.3Z"/>
                <path className="a" d="M387,900c-7.93.07-16.3-1.45-23.54,2.59-19.29,10.76-41.11,12.17-61.84,17.68-20.14,5.35-39.94,12-59.89,18,8,10,17.57,17.71,29.75,22,48.75-18.64,94.62-44.17,144.45-60.21C406.29,900,396.65,899.94,387,900Z"/>
                <path className="a" d="M1407.45,835c-4.57,4.91-10.93,6.72-17.94,7.24-10.81.8-21.63,2.26-32,6,6.42,8.93,14.07,15.56,26.11,14,24.89-4.66,37.37-26.69,56.07-40C1427.72,823.28,1416.33,825.46,1407.45,835Z"/>
                <path className="b" d="M3551.16,838.28c-19.33-10.63-39.95-16.34-62.09-16.18-.16.19-.28.37-.42.55a25.16,25.16,0,0,1-1.42-3c-7.66-3.51-16.08-3.48-24.17-4.81-18.29-3-36.69-4.38-55.17-1.5a21.21,21.21,0,0,0-2.63,1.38c-7.3-5-14.56-1.86-20.89,2.55-7.14,5-14.9,8-23.13,8.22-12.56.33-25.2-.54-37.38-4.4-9.5-3-19.31-4.88-28.92-7.36-21.16-5.46-43-7.49-63.85-14.93-22.36-8-45.2-15.61-69.91-12.86a49.28,49.28,0,0,1-28-5.7c-16.83-8.75-35.54-12.6-52.56-20.79-20.63-8.35-40.3-19.42-63-22-3-.35-5.27-2.58-7.89-3.92-18.13-3.35-35.77-8.22-52.37-16.42-15.19-4.69-29-12.09-42.12-21-6.4-5.61-12.06-12.54-21.81-12.15l-8.22-1.76h0c-8.87-2.32-17.76-4.77-25.87,2.14-10.06,3.19-20.47,5.66-28,14-11.32,7.37-22.12,15.72-34.07,21.87-16.74,8.63-35,14.38-50.26,25.87a25.19,25.19,0,0,1-14.9,5.2c-12.59-.11-22,6.7-31.73,12.95a82.87,82.87,0,0,1-18.8,8.93c-14.69,4.94-28.41,12.56-43.88,15.46-3.71.7-7.2,3.33-10.44,5.58-9.39,6.55-19.77,10.83-30.68,14-5.78,1.65-12.24,2.77-16.39,6.92-11.68,11.7-26,11.83-40.75,10.92h0c-4-2.68-8.49-3.57-13.13-4.19-14.55-1.94-27.09-7.32-37.49-18.45-8.18-8.75-18.45-15-31.11-16.18-20.12-1.82-36.51-12.51-53.57-22.07-13.2-7.41-25-17.94-40.49-20.79-11.58-2.13-20.7-8.82-29.27-16.14-5.06-4.31-9.64-9.29-15.69-12.09-10.6-4.9-18.22-13-25.45-21.77.1-4.51-3.15-7.1-5.82-10a116.31,116.31,0,0,0-28.54-23.06,77.11,77.11,0,0,1-20.31-15.88c-15.23-17.28-37.91-25.52-52.61-43.47-1.84-2.25-5.09-3.06-7.91-4.06-5.08-1.8-9.33-4.87-13.55-8.18-15.55-12.19-33-19.45-53.06-19.36-8.75-6.89-18.61-12-26.67-20.25-5.63-5.74-12.34-12.2-21.44-13.56h0c-8.82.35-19.37-3.82-26.08,2-10.56,9.13-22.38,17.5-29.72,30-2.44,1-5,2-6.66,4.06-12,15-27.06,26.71-41.05,39.6-4,4.63-10,5.56-15.24,7.89a104.94,104.94,0,0,0-20,10.13,201.29,201.29,0,0,0-35.16,30.44c-2.2,3-5.39,4.79-8.37,6.92-6.75,4.81-14.63,7.94-20.59,13.88-5.18,4.25-12.13,4.82-17.6,8.77-8.26,6-17.71,8.54-28.09,8.27-8.24-.21-16.59-.94-24.75,1.26-.57.24-1.12.49-1.68.74a28,28,0,0,0-14.68-9.66c-24.44-7-40.67-26.18-60.19-40.46-4.7-3.92-9.64-7.33-16-8a6.18,6.18,0,0,1-.53.36c0-.46.11-.93.17-1.39-11.46-3.91-23.21,3.16-28,16.84-16.76,12.88-32.17,27.39-49.67,39.46-26,17.93-45,45.33-76,56.63-4.94.7-9.37,2.39-12.52,6.54a9.18,9.18,0,0,1-7.14,4.69c-11.19,1.46-20.6,6.84-29.48,13.5-5.3,4-10.72,8.53-16.93,10.28-17,4.77-27.89,17.22-39.71,28.72-7.39,9.92-19.74,13.92-27.6,23.48-7.07,8.59-16.63,13.75-27.63,16-.81.3-1.64.57-2.46.85-7.48-4-15.52-7.07-21-14.12-23.13-9.46-46.64-18.17-66.4-34.18l-.33-.29s-.13,0-.55-.15A26.15,26.15,0,0,1,1277,795.54c-6-13.43-16.43-23-27-32.54-2.48-2.43-5.88-3.15-8.79-4.76-3.69-3.76-8.51-6.94-10.85-11.41-6.64-12.67-17.16-18.69-30.72-20.6h0c-17.77-7.31-20.61-6.47-32.66,8.9a54.87,54.87,0,0,1-7.07,6.89c-19.19,17-42.74,27.41-63.78,41.63-6.79,4.6-13.86,8.55-22.68,9.17-6.59.47-12.21,4.46-17.07,9.41-6,6.11-11.24,13.11-18.66,17.77-6.69-.65-11.5,3.49-15.83,7.33C1011,837,998.28,843.22,985,848.66a76.33,76.33,0,0,0-11.37,6.18c-21,13.16-42.66,25.16-62,41-12.49,10.2-27.12,17.52-39.44,28.43a212.11,212.11,0,0,1-48.66,32.52c-12.15,5.86-25.62,9.37-36.34,18.12a14.58,14.58,0,0,1-2.49,2.48c-7.67,2-15.42,4-23.32,2.25-16.75-3.68-33.22-9-49.39-14.32-19.57-6.44-36.75-19.59-57.14-24.66-13.6-3.38-23.94-12.75-36.38-18.08-14.22-6.09-27.29-13.64-36.76-26.29L513.8,878.09h0c-4.65-2.61-9.71-2.49-14.55-1.29-19.85,4.92-39.21,11.8-59.88,13.48-8.15.66-15,7-23.44,7.77-23.67,1.89-45.31,9.19-64.52,23.47-4.82,3.58-10.83,4.94-16.51,6.89C316,934.9,297,941.08,279.35,950.55c-4.1,2.2-8.57,4.05-9.06,9.61,1,7.27,6.26,10.76,12.29,13a75.88,75.88,0,0,0,30.17,4.51c21.78-1,43.63-2,65.42.65,1.1.37,2.17.8,3.26,1.22a164.51,164.51,0,0,0,38.27,6.22,41.61,41.61,0,0,1,24.91,8.57c16.81,12.79,36.48,20.32,55.26,29.47,6.26,3,13.18,3.5,20.36,3.45,16.2-.1,32.5-2.17,48.62,1.31,1,.43,2,.88,3,1.29,15,4.33,30.51,6.88,44.74,13.72,4,1.94,8.51,1.1,12.81,1.33,12.24.66,24.6-1.55,36.76,1.4a23.82,23.82,0,0,1,7.38,4c12.49,5.23,24.84,10.6,38.16,13.81,27.89,6.71,56.11,2.71,84.16,3.69a13.27,13.27,0,0,0,9.91-3.9c11.33-4.25,23-6.63,35.15-6.17,10.09.38,19.71-.92,29.15-5s19.08-9.09,29-10c28-2.57,50.3-18.69,73.9-30.74,18.67-9.53,34.3-25,56.65-26.92a6.48,6.48,0,0,0,2.66-1.33c10.17-6.73,21.5-8.48,33.4-7.83a10.94,10.94,0,0,0,4.38,1.83c8.64,3.27,17.57-2.12,26.24.87,16.05,4.58,31.31,10.38,44.52,21.3,20.31,16.78,43.93,28.56,66.27,42.29,8.61,5.29,17.2,10.3,27.07,12.17a77.44,77.44,0,0,1,36.28,17.83c13.94,11.94,30.69,19.9,44.2,32.32,2.67,2.45,6,2.48,9.2,3.06,8.38,2.62,16.74,3.79,25.43,1.09,23.77-7.36,47.74-14.07,72.39-17.81,6-.92,11.62-2.47,16.77-5.76,9.51-6.07,20.21-7.88,31.24-9.26,26.81-3.36,53-9.85,77.19-22a311.9,311.9,0,0,1,41.35-17.18c4.4-1.48,9.51-1.79,13.19-4.29,17.82-12.09,38-18.7,57.63-27,19.86-8.37,39.66-18.09,53.82-35,8.9-10.65,17.95-18.52,32.62-16.88.81-.23,1.64-.43,2.42-.62,4.91-.11,9.87.22,14.81-.05,25.53-1.4,51.32,3.39,76.63-3.19,9.66-.87,15.93-7.56,22.83-13.2,4.1-3.35,7.9-7.5,12.59-9.61,25.08-11.27,47.49-27.25,71.81-39.76,8.15-4.2,16.47-10.54,26.94-7.21,14.56,9.79,31.45,13.91,47.76,19.37,7.27,2.43,14.73,4.37,21.21,8.55a51.68,51.68,0,0,0,21.4,7.78c11.71,1.61,22.49,5.73,32.79,11.41a297.71,297.71,0,0,0,44.56,20c18.17,6.43,35.68,13.69,51.67,25.29,16.66,12.07,35.21,20,57.3,20.14,20.87.11,41.91,4.93,59.79,16.83,17.65,11.75,36.78,14.13,57,12.79,19.4-2.62,38.91-.59,58.36-1.18,4.28-.14,8.63-.37,12.6,1.83,1,.63,1.9,1.31,2.81,2a18.38,18.38,0,0,0,9.53,5.21c26.28,4.08,49.69,17.79,76.5,21.08,33.16,4.07,65.43,15,99.43,13.06a12.35,12.35,0,0,1,6.74,1.6c15.83,9,33.66,12,50.73,17.4,15.46,4.88,31.07,8.51,47,6.51,19.46-2.43,39-2.37,58.45-3.54,6.37,0,12.66-.55,18.16-4.16a173.53,173.53,0,0,0,30.29-25.59c11.56-12.09,21-26.52,36.46-34.57,18.13-9.45,37.3-17.15,52.57-31.44,1.56-1.45,4.24-1.7,6.4-2.52,4.9.61,10.06-2.34,14.65.14,17.1,9.25,35.8,11.42,54.68,13.15,3.26.3,6.75.69,9.32,3.07,5.61,5.16,12.49,6,19.55,5.73,31.21-1,61.39,6.51,91.18,13.63,21.94,5.25,43.75,7,65.89,8.37,8.69.53,17.42-.11,25.5-3.49,19.87-8.3,40.31-12.63,62-10.68,5.15.47,9.78-1.61,13.4-5.5,4.34-.59,8.21-2.34,12.13-4.26,13.07-6.4,25.76-14.48,39.59-18.21,19-5.14,34.27-15.64,49.06-27.33,26.23-20.73,56.75-35.37,81.83-57.59,20.58-18.22,41.78-35.66,63.27-52.76h0A75.34,75.34,0,0,0,3551.16,838.28Z"/>
                <path className="c" d="M3840,922.23a8.61,8.61,0,0,0-1.31-3.05V854c-4.66-.47-9.33-.76-14-.93a129.34,129.34,0,0,0,13.89-1,2.22,2.22,0,0,0,.07-1.68c-38.86,1-77.62.25-115.67-8.84-11.84-2.83-23.78-6.06-34.91-10.89-15-6.52-28.36-17.12-45.56-18.26-.86-1.66-2.05-1.4-3.33-.56l-4.19.3h0c-21.62.44-44.67-6.87-63,11.73-1.48,1.5-4.24,1.75-6.4,2.59-6.74-.39-11.55,3.34-16.15,7.53a138.07,138.07,0,0,1-16.8,14.11c-19.59,14.32-38.13,30-56.35,46-12.75,11.2-25.43,23.12-40,31.09-22.7,12.38-42.13,29-63.09,43.54-6.07,4.22-12.06,8.32-19.09,10.55-20.35,6.49-39.11,16.61-58.47,25.38-3.15,1.43-6.42,2.78-8.41,5.83a147.15,147.15,0,0,1-14.76,1.45c-17.83.36-36.13-2.41-52.07,9-1.24.89-3.25.63-4.81,1.16-23.34,7.84-47,2.92-70.21.44-16.58-1.77-32.63-8-49.15-10.81-11.06-1.9-21.77-5.55-33.19-5.88-14.59-.44-29.94.63-43.51-3.58-15.24-4.73-30.57-8.13-46.07-11.34-6.48-1.34-14-1.39-18.85-5.88-7.57-7-13.78-5.83-20.25-.27-6.86-2.42-12,1.67-16.47,5.59-9.14,8-19.38,13.85-30.43,18.63a111.11,111.11,0,0,0-40.6,29.79c-6.7,7.77-13.54,15.55-21.17,22.45-10.88,9.84-22,19.51-37.9,19.94-8.45,2.68-17.19,2-25.78,1.57a44.16,44.16,0,0,0-10.5.74c-5.37,0-10.73.2-16.08.62-28.44,2.23-54.89-6.7-80.46-15.62-18.23-6.36-35.51-11.76-54.71-10.73-2.28.12-4.6-.62-6.91-.82-21.91-1.82-42.72-9.74-64.48-12-13.38-1.38-26.21-3.46-38.22-9.69-7.45-3.88-15.55-5.75-23.81-6.93a83,83,0,0,1-25.42-8.44l-1.44-.36c-23.29-1-46.58-.93-69.94.12a2.46,2.46,0,0,0-4.53-1.83c-15.56-1-32.57,0-45.36-8.91-21.5-14.93-45.26-21.71-70.14-22.16-25.53-.46-45.13-12.06-64.28-26-5.19-3.77-10.24-7.52-16.19-9.55-26.48-9-52.73-18.53-76.93-32.8-12.46-7.35-28.15-5-39.88-11.69-15.08-8.58-31.27-12.94-47.23-18.3-10.18-3.42-19.16-10.66-30.5-10.51-4-5.71-9.53-4.45-14.77-2.31-22.14,9.06-42.52,21.43-63,33.63-16.74,10-34.82,17.78-49.23,31.42-2.4,2.28-6.06,2.62-8.93,4.31-2.4,1-4.76,2.12-7.12,3.22a24.92,24.92,0,0,1-2.76,1.66c-27,1.94-54,1.64-81,.19a17.26,17.26,0,0,0-3.24-.81c-13.83-2.89-23.82,3.16-32.06,13.54-4.13,5.21-8.4,10.27-14,14.06-19.43,13.05-39.65,24.48-62.27,31.18a63.57,63.57,0,0,0-16.38,7.31,166.35,166.35,0,0,1-44.54,19.72,115.2,115.2,0,0,0-26.49,11.57,93.26,93.26,0,0,1-22.84,9.93c-20.19,5.45-39.88,12.93-61.12,14.09a59.07,59.07,0,0,0-26.52,8.22,50.7,50.7,0,0,1-21.75,6.78c-8.41.67-16.2,3.71-24.31,5.31-23,4.54-44.77,15.74-69.14,12.32-.53.11-1,.27-1.56.41-15.91-15.22-36.33-24.43-52.73-39.1-6.58-5.89-14.67-11.08-23.43-12.74-17.76-3.36-32.24-12.74-47.62-21.32-22.7-12.66-43.85-27.28-64.75-42.54-10.46-7.64-22.83-11.63-35.6-14-9.21-.68-18.43,2.78-27.64.06a36.63,36.63,0,0,1-4.2-2.38,29.78,29.78,0,0,0-20.61.72c-14.28,5.61-28.94,9.94-43.54,14.53-4.18,1.31-7.58,4.11-11.12,6.61-28.42,20.07-58.42,36.78-93.08,43.6-3.93.77-7.59,2.41-11.32,3.87-16.12,6.29-32.15,12.44-50.14,11.26-11-.72-21.93,1.45-31.28,8.24a17.11,17.11,0,0,1-1.11,1.47c-20.5,0-41-.12-61.51,0-24.43.13-46.55-8.43-68.48-17.79a126.92,126.92,0,0,0-14.25-1.26,61.42,61.42,0,0,0,8.6-1.07c-8-3.15-16.35-.88-24.51-1.56-9.14-.76-18.62,1.5-27.35-3-14-7.16-29.37-9.69-44.45-13.19a111.18,111.18,0,0,1-13,.89,82.9,82.9,0,0,0,11.3-1.15c-9-3.27-18.58-2.24-27.6-1.32-31.11,3.17-56.59-10.4-82.19-25-10.56-6-19.12-16.7-32.12-17.24-15.7-.65-31-3.36-46.33-6.18a208.44,208.44,0,0,1-21.76,1,172.75,172.75,0,0,0,20.05-1.21c-3.24-2.42-7-1.6-10.59-1.64-21.24-.19-42.53.46-63.7-.74-12.83-.72-27.24-.41-34.31-15.21-9.38-8-17.86-17.3-29.75-22l.14-.2c-6.71-7.73-12.14-17.09-23.74-18.58l-22.82-15c-3-2.53-6.78-2.43-10.24-2.35-15.29.37-30.18-2.24-45-5.46-18.6,1-37.24-.28-55.86.67a2.1,2.1,0,0,0-.45-1L80,891.81l-8.08.36c0,.37,0,.73,0,1.1-3.4-.64-7-.5-9.6-3.44-1.92-1.55-4.2-1.64-6.51-1.6h0l-11.42-4.47c-2.93-.43-5.87-1.26-8.71-1.61C23.75,880.7,11.58,877.5,0,884v305.72c13.26-7.76,28.31-6.93,42.64-7.51,27.52-1.12,55.11-.35,82.67-.41,3.69,0,7.31.12,10.64,2,6.1,3.37,12.19,7.09,19.32,7.51,20.52,1.19,40.83,5.45,61.5,4.48,6.4-.3,12.86.29,18.61,2.7,20.22,8.46,41.17,14.58,62.18,20.54,17.91,5.07,35.8,10.66,54.38,2.84,17.33,0,34.66-.31,52-.08,11.42.15,22.18-2.72,31.14-9.12,13.72-9.8,28.92-14.34,45.07-17.75,9.49-2,19.59,1.47,28.46-3.61,20.3-11.61,42.34-12.94,64.91-11.43,35.79,2.37,71.74,6.74,106.23-8.06a6.74,6.74,0,0,1,2-.19c8.61-.86,17,.59,25.49,1.86a20.35,20.35,0,0,1,12.3,6.16c10.09,11.09,22.47,19.82,32,31.48,14.74,18,32.44,31.37,56,35.69,7.55,1.38,14.58,4.78,21.26,8.55,18.18,10.27,37.23,17.81,58.23,19.69a28.1,28.1,0,0,1,19.7,10.69,68,68,0,0,0,25.31,19A35.3,35.3,0,0,1,948,1319.3c5.36,8.81,11,17.44,16.58,26.16,2.86,4.5,5.8,9,10,12.37,23.24,18.62,49.55,26.17,79.14,21.84,12-.15,24.73,2.29,35.77-1,19.58-5.84,39.81-6.83,59.46-11.41,18.67-4.35,38.07-4.33,56.26-12.24,23.33-10.14,46.49-21.45,72.6-23.58,4.08-.33,8-3,11.91-4.87a147.28,147.28,0,0,1,41.68-13.17c12.77-2,26.67-1.94,37.93-7.29,22.83-10.84,47.38-17.77,69.33-30.15,29.08-16.39,61-19.39,93-21.73,10.56-.77,18.61-3.6,25.4-11a29.86,29.86,0,0,1,17-9.53c27-5.38,54.29-4.11,81.53-4,13.25,3.4,26.79,5.47,40.35,3.91,25.26-2.9,42.67,11.58,60,26.07,13.93,11.65,27.39,23.54,47.31,22.22a12.81,12.81,0,0,1,8.47,2.54c11.14,8.17,23.74,11.43,37.39,12,39.82,1.6,79.75,5.17,118.42-8.72,16.74-1.29,30.44-10.29,45.12-17.12,11.27-5.24,21.6-11.13,30.88-19.58,11.24-10.23,21.77-22.49,39.22-22.19a9.42,9.42,0,0,0,5.59-1.92c11.12-9,24.23-15.09,34.58-25.2,7.3-7.13,14.47-16.32,25-17.26,22.14-2,44-5.29,66-8.33,15-2.07,30.56-1.13,43.49-11.27,3.18-2.5,7.3-2.77,11.36-3.12,28.56-2.43,57.1-7.44,82.88-19.25,16.3-7.46,33.59-11.29,49.6-18.85,9.79.12,17.8,4.38,24.26,11.3s13.5,13.91,19.19,21.63c17.51,23.78,41.32,37,69.7,42.49,17.37,3.37,34.51,7.09,50.39,15.25,3.85,2,8.31,2.31,12.49,3.37,20.63,5.23,41,11.48,60.4,20.18,21.38,9.61,42.7,18.58,66.45,19.87a31,31,0,0,1,8.76,1.89c33.14,11.91,67,11.31,101.22,6.26,17.13-2.52,33.82-7.36,50.85-9.62,13.86-1.83,26.8-4.43,38.31-12.5,4.61-2.75,10-3,15-4.83,17-6.36,33.35-15.15,51.84-16.74,5.94-.51,10.51-3.18,15.53-5.85,11.87-6.32,23.12-14.56,37.47-14.7,16.36,1,33.22.14,48.8,5.09,16.21,5.15,32.76,8.71,49.15,12.66,23.49,5.65,47.75,1.49,71.65,2.46,7,.28,13.16-1.46,18.51-6,7.76-2.75,15.33-6.74,23.33-8,23.66-3.73,44.39-14.53,65-25.57,10-5.35,20.88-8.62,30.57-14.18,22.68-13,47.71-16.83,72.92-20.38,7.87-2,15.86-.55,23.79-.86,59.17-2.36,118.2,4,177.34,2.86,11.85-.21,22.33,2.47,32.15,8.66,12.24,7.72,25.7,12.54,39.56,16.24a89.3,89.3,0,0,1,17.61,6.69c12.7,6.46,25.78,12.19,38.65,18.34,9,4.3,17.92,4.48,26.85-.25,9.47-5,19.64-8.09,29.91-11,13.78-3.89,27.67-7.23,41.65-10.27,3.84-.83,8.13-1.06,9.42-5.95Q3840.09,1047.21,3840,922.23ZM629.2,1043.3a110.43,110.43,0,0,1,13.49-.42c-4.41.13-8.82.31-13.23.44-.46,0-.54.38-.26,1C629.8,1045.46,627.91,1043.8,629.2,1043.3ZM3790.09,853.06c4.6-.18,9.2-.16,13.8-.09-7.49.12-15,.32-22.47.38C3784.25,852.75,3787.21,853.17,3790.09,853.06Zm-10.43.83a1,1,0,0,0,.14.29C3780.57,855.23,3778.59,854.58,3779.66,853.89Z"/>
                <path className="d" d="M3839.9,1219a5,5,0,0,0-1.25-1.71l.06-43.49c-28.62,3-56.19,10.11-82.25,22.35-6.48,3-12.57,4.78-19,1.4-14.69-7.75-30.76-12.61-44.9-21.46a37.4,37.4,0,0,0-11.92-4.63c-14.62-3.36-28.63-8.3-41.6-16.19-8.13-5-16.29-9.65-26.75-9.59q-40.72.19-81.45.18c-2.76-1-5.76-1-8.77-1-15,0-30,.13-44.92-.06-24.28-.3-48.56.92-72.84-.62-5-.55-9.95.25-14.89,1.07-29.49,4.88-57,15.37-83.24,29.38-8.52,4.56-18.17,6.77-26,12.68-8.14,6.18-17.27,9.62-27.23,11.68-15.31,3.17-30.2,7.75-43.78,15.79-.29.52-.6,1-.9,1.5-18.52,2.61-37.19.77-55.76,1.58-27.1,1.18-52.11-7.64-77.49-15-13.47-3.91-27.07-4.15-40.71-2.72a20.28,20.28,0,0,0-10.77-2c-7.24-.57-13.61,2.14-20.17,4.76-13.5,5.38-25.14,14.46-40.19,17-21.7,3.71-41.75,13.12-61.82,22-1.12,1.27-2.29,2.51-3.47,3.74-17.17,5.61-35.39,6.45-52.89,10.75a341,341,0,0,1-61.92,9.18c-30.85,1.76-60.17-7.42-90-12.79a189.8,189.8,0,0,1-26-6.75c-19.52-6.44-37.23-17.13-57.29-22.69-14.61-4-30.08-6.63-43.64-12.9-19.71-9.11-40.6-11.93-61.05-17.34a103.42,103.42,0,0,1-33.84-15.69c-16-11.5-26.52-27.7-39.29-41.91-9.89-11-16.47-14.89-26.87-12.84a18.2,18.2,0,0,0-3.44-1.42c-13.6,4-28.22,4.85-40.63,12.58-10.62,6.62-22.49,9.9-34.28,13.45-28.48,8.57-59.54,6.92-86.39,21.9a2.62,2.62,0,0,1-1,.23c-22.24,1.54-44,7.19-66.23,8.3-21.56,1.08-40.63,6.27-55.28,23a14.07,14.07,0,0,1-2.2,2c-11,8.08-21.08,19.12-34.34,21.57-17.42,3.21-29.15,13.68-41.25,24.4-6.28,5.57-12.6,10.92-20.29,14.33-17.56,7.8-34,18.42-53.25,22-1.46.83-2.93,1.62-4.4,2.44a22.79,22.79,0,0,0-6.63.44c-30.76,7.89-62.13,5.93-93.29,5.37-17-.31-34.86-.21-48.89-13-2.95-2.7-6.75-3-10.38-2.52-18,2.37-31.4-7.88-41.89-19.15-10.87-11.68-25.63-16.26-37.16-26.15-3.64-3.12-9.32-3-14.42-2.92-15.23.14-30.45.11-45.67.11-2.89-1.06-5.78-2.09-8.69-3.08a311.54,311.54,0,0,0-57.86-.13c-17.32,1.67-35.41,3-48.18,18.13-3.72,4.41-9.79,4.75-15.65,5.22-19.56,1.6-39.51,2.26-58.28,7.74-30.64,9-59,24.11-88.28,36.67-12.3,5.27-24.3,10.21-37.82,11.85-14.16,1.72-28.45,4-41.85,9.23-18.89,7.38-37.45,15.55-58,17.61-4.93.49-9.32,3.47-14,5.32-24,9.6-47.46,20.49-74,23.09-36,3.52-70.78,15.51-107.36,15.07a75.18,75.18,0,0,1-18,2.53c-32.82-3-59.4-17.12-76.88-48.85-6.55-11.9-12.71-24.82-27.68-29.9-8.8-3-15.83-9.08-21.67-16.92a28.43,28.43,0,0,0-21.09-11.82c-19.15-1.5-36.94-7.48-53.66-17A115.3,115.3,0,0,0,799.67,1241a55,55,0,0,1-26.44-13.18c-15.66-14.34-29.74-30.31-45-45.16C715,1169.72,704,1165.41,687.11,1170a37,37,0,0,0-6.52-1.63c-11.86.53-22,8.46-33.61,8.84-22.26.73-44.57,1.54-66.84-.59-24.12-2.31-47.95-2.2-70.21,9.43-5.13,2.69-10.59,3.46-16.36,3.75-20.21,1-39.53,5.27-56.65,16.85-11.65,7.88-24.42,11.3-38.62,11.2-15.26-.1-30.61-1.68-45.81,1.24a35.34,35.34,0,0,0-4.51,2.51c-8.57-.5-17.17-.22-25.78-.93-13.3-1.11-24.56-8.52-37.11-10.2-13.22-1.77-24.95-6.56-36.61-11.94-7.37-3.4-15.12-6.2-22.8-6.3a586,586,0,0,1-85.74-7.77c-1.48-1.32-2.93-2.71-4.32-4.22-4.2-2.46-8.87-2.54-13.54-2.56-15-.08-30-.06-44.93,0-19.28,0-38.58-.62-57.77,2.13-7.65,1.09-15.38,1.89-19.38,10V1351.6c2.46,3.28,5.47,5.89,9.52,6.86,9.89,2.36,18,8.24,26.81,12.83,15.5,8.07,30.13,19.58,48.51,19.76,21,.2,41.86,3.27,62.79,2.25,12.9-.63,22.37,3.41,30,13.81,8.44,11.48,20.3,16.84,34.68,16.34,11.33-.4,22.58,1.06,33.86,1.57,7,.32,11.27,2.28,15.2,8.48,13.44,21.21,21,24,45.2,19.07,1.31-.27-.33,0,1-.24,10.21-2.12,19.18-1.17,24.9,9.21,1.75,3.18,4.64,5.63,7.21,8.25,15.4,15.66,25.67,17.14,44.11,5.64a38.39,38.39,0,0,1,18.82-5.78c11-.53,22-.21,33-.14,4.1,0,8.31.68,11.47,2.93,9.64,6.84,20.44,7.41,31.54,7,15.72-.61,30.66.57,45.38,8.15,15.27,7.85,24.55,4.35,35.22-9.61,3.52-4.6,6.11-4.12,9.5-.45,1.88,2,2.56,4.54,3.3,7.14,3.75,13.21,13.89,18.25,26.92,13.31a127.09,127.09,0,0,0,17.83-9c8.65-4.93,17.07-4.75,25.36.86,5.25,3.56,10.67,6.45,17.1,7.77,20.6,4.24,38.82-3.43,56.59-11.65,6.71-3.11,11.22-3.61,17,.84,4.92,3.78,10.41,8,17,2.68,7.46-4.53,14.61-9.66,19.13-17.18,7.45-12.41,7.74-13.41,19.68-5,9.19,6.46,17.92,7.21,28.1,4.51a72.43,72.43,0,0,0,30.19-16.59c10.77-9.72,24.47-11.17,35.48-6.14,16.88,7.7,32.11,5.13,46.75-1.8,14.05-6.66,25.81-5.33,38.26,2.46,9.37,5.87,20.08,4.56,30.16,3,6.86-1,7.49-8.69,9.58-14.14,2.24-5.81,5.9-9,12.23-10.11,9.64-1.74,19.27-.67,28.89-.9,4.78-.11,8.45-1.21,10.4-6,2.62-6.38,7.06-7.3,12.89-4.22a19.32,19.32,0,0,0,16.47.9c18.41-7.13,39.46-8.61,53.68-24.8,9.56,2.54,18.71,6.64,28.38,8.49,13.62,2.6,27.33,8.49,41.27,4,10.15-3.25,18.27-.83,26.33,4.5a111,111,0,0,0,23.16,11.66c16.14,5.91,32.54,10.45,49,.33a21.42,21.42,0,0,1,15.46-2.76c19.34,3.74,39.61-.94,58.57,8.91,8.35,4.33,16.82,7,22,15.43,6.76,10.87,16.73,14.89,29.14,12.55,7.16-1.35,13.47.29,18.49,5.12,11.5,11,26,13.56,40.68,13.4,32.33-.36,64.53,3.69,96.85,2.21,11.83-.54,21.45,3.37,29.53,11.79,6.08,6.32,12.85,12.07,21.55,13.94,22.05,4.75,43.56,12.61,66.54,12.36a21.21,21.21,0,0,1,14,4.64c19.69,16.39,44.38,21.08,67.71,28.26,21.94,6.75,43.85,12.23,63.74,24.74,12.58,7.91,25.74,16.18,42.59,14.55,14.85-1.44,30.06.8,44.93-.57,21.1-1.93,42.78.79,63.25-6.91,12.5-4.69,24.08-4.1,34.25,5.64a23.91,23.91,0,0,0,7.43,5c14.65,5.81,29.46,10.46,44.91,2.5,17.26-.33,35.31,3.18,50-10.06,19.34-5.6,38.67-4.73,58,.07,3.85,1.8,7.46,4.3,12,4,3.84,4.1,8.89,4,13.91,4a457.24,457.24,0,0,0,57.59-3.32c13.84-1.67,25-5.34,34.17-15.5a111.19,111.19,0,0,1,12.2-11.77c5.57-4.5,11.42-6.84,19.23-6,16.9,1.9,33.75-2.5,50.72-1.78,2,.08,3.82-1.06,5.54-2.12a16.49,16.49,0,0,1,9.75.41c10.13,3.51,20.84,3.7,30.13-.89,15.7-7.76,31.21-7.6,47.38-3.08,10.2,2.85,18.91,1.39,25.27-8.31,5.79-8.84,12.17-9.9,20.78-3.76,4.1,2.92,7.87,6.12,13.24,6.09,17.43,11.69,25.83,11.85,42.13-1,7.35-5.82,15-7.4,24-7.1,16.89.56,32.93-3.7,44.74-16,16-16.66,34.57-23.3,57.2-19.94,8,1.18,15.16-1.24,21.36-6.41,8.48-7.07,18.8-10.91,28.53-15.59,16.92-8.13,32.81-16.55,43.12-33.69,6.15-10.24,16.09-17.57,29.8-16.25a101.35,101.35,0,0,0,15,0c7.21-.38,12.62-2.9,14.42-11s7.26-13.25,15.66-14.85c14,2.68,27.95,5,41.51-1.9a11.87,11.87,0,0,1,10.51-.14c5.17-.4,9.06,2.7,12.22,5.8,4.93,4.84,9.08,4.34,13.71.19a12.85,12.85,0,0,0,4-6.79c2.53-13,11.89-19.31,23.13-24,3.25-1.35,5-1.28,7.48,1.75,18.79,23,58.73,24.09,78.31,1.85,5.61-6.36,11.67-9.42,20-8.9,5.64.35,11.33-.28,16.87,1.36,6.42,1.91,11.76-.32,16.57-4.49s9.2-9,11.5-14.92c3.16-8.14,8.4-8.16,15.13-5.43,5.2,2.11,10.17,6.91,15.79,5.43,12.56-3.3,24.38.16,36.5,1.87,9.21,1.29,18.54,2.35,27.58-1.5,3.39-1.44,6.45-.12,9.45,1.59,7.5,4.27,9.91,10.79,10,19.19.17,11.8,4.15,17.1,12.51,18.91,8.19,1.77,13.26-1.1,19-10.73,3.4-5.72,12.31-9.06,18.14-6.4,7.42,3.4,3.29,8.93,2,13.72-3.86,14.56,1.92,23.84,16.78,27.16a42.41,42.41,0,0,0,28.21-2.82c12-5.58,14.37-5.41,21.74,5.29,8.48,12.34,14.86,12.29,28.3,7a47.43,47.43,0,0,0,12.15-6.87c7.71-6.1,16.68-8,26.17-8.28,13-.34,26,0,39-.19a28.27,28.27,0,0,0,20.58-8.65c11.48-11.47,14.7-12.1,28.41-4.17,7.86,4.54,15,4.54,22.46-.31,9.23-6,18.9-11.36,26.85-19,5.62-5.43,11.92-8.12,19.76-7.79,6.88.28,13.54-1.11,18.1-6.74,7.46-9.22,16.61-8.24,26.25-5,4.42,1.48,8.4,4.06,12.81,5.6,7.59,2.64,15.48,3.38,22-1.86s13.7-5.9,21.5-6c10.92-.14,22.3,2.1,32.58-2.78,8.65-4.1,14.45-2.87,20.73,4.62,9,10.73,29.69,13,40.06,4.71,5.72-4.6,10.44-4.66,16.21-1.24a32.18,32.18,0,0,0,21.16,4.3c5-.66,9.14-2.38,9.14-8.47C3839.93,1309.36,3840.1,1264.18,3839.9,1219Z"/>
                <path className="e" d="M3840,2010.78a9.89,9.89,0,0,0-1.29-4.47c.11-2.08.28-4.17.28-6.25q0-317.73,0-635.46c0-2.32-.22-4.63-.33-6.95-10,3.41-19.24,3.16-28.46-3-4.22-2.82-9.45-7.27-15.24-1.81-13,12.25-30.12,11-41.08-3-5.07-6.48-10.7-9.89-18.66-4.35-5.42,3.77-11.65,4.4-18.14,4.2-8.66-.27-17.33.07-26-.11-4.6-.09-8.52.92-11.57,4.58-6.21,7.45-14,6.63-21.83,3.66-4.34-1.65-8.32-4.23-12.58-6.11-11.39-5-22.11-2.71-29.84,6.59-3.26,3.93-7.13,5.93-12.19,5.3-11.44-1.45-20.66,1.93-28.32,11-3.54,4.17-9.07,6.61-13.57,10-11.38,8.59-22,14.74-35.95,2.77-7-6-17.21-1.86-23.16,5.9-5.4,7-11.94,10.93-21.32,10.5-12.64-.57-25.33-.43-38,0-10.31.32-20.46,1.34-28.71,9.1-3.55,3.33-8.25,5.37-13,7.25-9.24,3.66-15.63,4.61-21.83-6.4-7.81-13.87-12-13.74-26.89-6.7-2.7,1.27-5.47,2.71-8.36,3.2-10.39,1.77-20.87,1.54-29-6-7.68-7.13-3.55-15.28.25-22.87,2.1-4.19,1-8-1.92-11-6.72-6.85-25.84-1.92-28,7.53-1.84,7.87-7.29,9.18-13.38,8.69-6.56-.54-11.2-4-10.82-11.73a84,84,0,0,0-.09-12c-.82-8.84-14.81-21.1-21.51-17.92-14.53,6.9-28.46,3.11-42.59-.33-5-1.2-10.44-2.17-14.77-.34-7.37,3.11-12.86,1.93-19.29-2.35-4.81-3.21-11.3-5.41-17-4.3-4.88.94-4,7.87-6.55,11.62s-5.07,8-8.43,11c-4.78,4.37-9.42,6.15-17.41,4.65-14-2.61-30.05-6-39.9,11-4.15,7.2-12,10.95-20.23,11.35-9.91.49-19.83.8-29.84-1-13.38-2.34-21.7-8.8-23.18-23.53-4.81,2.71-7.83,7-12.72,8.48-15.12,4.61-22.15,15-22.41,30-5.53,1.67-10.46.6-15.15-3a16.92,16.92,0,0,0-11.06-3.76c-3.21.59-7.63-.56-9.33,2.57a214.39,214.39,0,0,0-42.17,2.53,5.58,5.58,0,0,0-1.09-1.08c-8.12-1.58-13.45,3.45-15.59,9.58-4.34,12.34-13,14.73-24.26,13.68-18.43-1.7-31.07,7.33-40.45,22.12a57,57,0,0,1-11.33,12.45c-12.31,10.66-28,15.18-41.83,23-12.76,7.15-24.54,17.23-41.22,14.55-18.28-2.94-33.49,3-46.63,16.61-11.87,12.31-27.25,19.29-44.72,19-12.22-.22-22.65,2.61-32.3,10.37-8.69,7-18.69,8.11-28.88,2.4a17,17,0,0,0-7.49-2.54,17.92,17.92,0,0,0-2,.34c-3.11-2.85-6.17-5.75-9.45-8.39-9-7.23-20.93-5.62-25.52,3.28-5.58,10.85-9.35,12.3-21.26,9-16.92-4.74-33.73-6.9-49.69,3.41-3.48,2.25-7.52,2.27-11.54,2.25-6.86,0-13.73,0-20.6,0a6.63,6.63,0,0,0-3.9,0h-2.34c-18-1.21-36.09,3.5-53.7,1.31-14.18-1.76-22.69,3.83-31.28,12.59-4.19,4.28-8.33,8.64-12.77,12.66-3.67,3.33-7.55,7.33-12.78,7.15-19.66-.7-38.64,6.63-58.46,4.38-7.79-.88-15.76-.23-23.67-.15a7.45,7.45,0,0,0-.43-.71c-3.31-3.41-7.6-4.83-12.07-5.85a15.73,15.73,0,0,0-4.6.26c-10.46-5.71-21.91-7-33.74-5.54-6.94.85-14.56.74-19.69,6.8a28.09,28.09,0,0,0-3-.83c-12.43,7.36-26,8.94-40.13,8.1a13.44,13.44,0,0,0-7.63,2c-.6.55-1.17,1.13-1.71,1.72-17.94,0-36.49,1.7-50.8-12.46-10.51-10.41-22.09-8.64-34.19-4.92-7,2.15-13.88,4.85-21.24,5.31-32.55,2.06-65.15,2.46-97.75,2-2.61,0-5.58-.06-7.75-1.24-14.2-7.77-28.36-15.63-42.23-23.95-4.66-2.8-9.33-5.43-14.56-6.26-22.11-3.53-42.85-11.61-64-18.36-11.94-3.81-22.75-8.76-32.24-17-2.85-2.48-7.14-4.59-10.81-4.66-19.77-.38-38.54-5.33-57.7-9.49-14.11-3.07-25.69-7.6-35.32-18.17a31.6,31.6,0,0,0-25.83-10.76c-34,1.55-67.8-2.58-101.76-2.26-13,.12-26.48-.87-36.62-11.92-6.51-7.11-14.83-8.7-24.66-6.2-9.52,2.44-17.49-1-22.59-10.31-3.15-5.78-6.93-13.21-13-14.43-17.83-3.58-34-15.23-53.52-11-3.7.81-7.91-.37-11.83-1-8.33-1.26-16.15-1.36-24.19,2.69-6.86,3.46-13.66,8.07-22.59,5.84-16.84-4.19-33-9.48-47.45-19.52-8-5.53-16.47-8-26.23-2.89-5,2.61-11.36,1.94-16.73.5-13.79-3.71-28.45-3.64-41.69-9.57-2.88-1.29-5.6-1-8.34-.4-1-.38-1.94-.72-2.89-1.12-1.34,0-2.89,0-3.81.9-12,12.37-29.28,13.45-44,20a27.08,27.08,0,0,1-20.51,1.06c-6.62-2.36-12.6-1-17,4.81-3,3.91-6.84,4.85-11.39,4.84-5.32,0-10.65.08-16,.15-12.43.15-22,4.41-26.44,17.07-1.43,4.13-3.67,8.07-8.83,8.44-8.33.58-16.66,1.07-24.33-3.36-14-8.07-27.88-8.84-42.82-1.6-11.83,5.74-24.83,8-37.75,3.07-16.21-6.24-31.19-5.41-45,5.9a85.41,85.41,0,0,1-23.19,13.59c-11.25,4.36-21.87,3.13-32.12-4.1-5.85-4.13-13.83-6.65-18.55,1.18-5.66,9.39-13.78,16.1-21.25,23.62-.38.69-.79,1.37-1.2,2-7.55-.36-12.34-6.45-18.21-10.24-2.44-1.57-4.74-5-7.64-1.91-9.6,10.31-23.14,10.89-35.26,15.06-15.24,5.24-29.16,3.26-42.19-6.26-9.72-7.1-19.6-6.68-29.73-.31a135.8,135.8,0,0,1-17.72,9.2c-10.06,4.42-19.48-1-20.43-11.88-.65-7.41-5.72-10.89-11.16-14.19-3.73-2.25-5.71-.78-7.52,3.15-7.38,16-15.25,19.26-31.6,12.07-11.9-5.23-23.26-10.12-37-9.09-14.63,1.09-29.91,2.84-42.86-7.79-2.22-1.83-6.35-1.7-9.62-1.8-8-.24-16,0-24-.11-12.46-.24-24,1.27-34.75,9.13-7.17,5.24-16.78,8.12-25.1,1.59-6.49-5.1-13.77-10.69-17.27-17.76-6.4-12.91-16.62-11.58-27.23-10.34-5.22.6-10.32,2.58-15.37,4.25-3.77,1.24-7.34,1.6-10.14-1.58-7.16-8.14-17.34-13.79-20.75-25.09-.91-3-2.89-5.26-6.64-4.68-13.34,2.06-26.4-3.06-39.76-1.49-16.66,2-28.78-5.24-37.94-18.89-4.14-6.17-9.92-11.27-18-11-18.33.72-36.69-3.3-54.74-1.65-25.43,2.33-46.46-7.73-66.34-20.23C26,1360.14,13.3,1355.59,0,1351.6v807.28c3.79,1.93,7.86.94,11.79.94q240.36.1,480.75.06a10,10,0,0,0,2.47-2.42,8.66,8.66,0,0,1,.83,1.09c2.32.11,4.64.32,7,.32q318,0,635.94,0c1.89,0,3.78-.14,5.67-.24a8.87,8.87,0,0,0,5.15,1.25h977.58q850.17,0,1700.34,0c13.42,0,12.49,1.6,12.5-12.18Q3840,2079.25,3840,2010.78ZM435.92,1864.58l-.18-.11.23,0A.88.88,0,0,0,435.92,1864.58ZM346,1511.17h.42l-.17.21ZM3562.25,1813c-.3.3-.62.55-.93.82l-.08-.18C3561.58,1813.4,3561.92,1813.2,3562.25,1813Zm5.18,167.28a1.24,1.24,0,0,0,0,.16h-.11ZM3457.84,1607.6c-.12,0-.23.06-.35.11s-.3.16-.45.23v-1.35C3457.3,1606.93,3457.57,1607.26,3457.84,1607.6Z"/>
            </svg>