<svg xmlns="http://www.w3.org/2000/svg" class="scape" viewBox="0 0 3840 2160">
                <path className="f" d="M397.48,1901.28c21.4,52.09,95.6,58.21,125.34-4.16-1.2,30.24,6.11,61.47,37,95.44h-191c17.66-29.85,28.3-60.2,28.68-91.28Z"/>
                <path className="f" d="M323.47,1901.28c21.41,52.09,95.61,58.21,125.35-4.16-1.21,30.24,6.11,61.47,37,95.44h-191c17.66-29.85,28.31-60.2,28.68-91.28Z"/>
                <path className="f" d="M248.54,1901.28c21.41,52.09,95.61,58.21,125.35-4.16-1.2,30.24,6.11,61.47,37,95.44h-191c17.67-29.85,28.31-60.2,28.68-91.28Z"/>
                <path className="f" d="M175.93,1901.28c21.41,52.09,95.61,58.21,125.35-4.16-1.21,30.24,6.11,61.47,37,95.44h-191c17.66-29.85,28.3-60.2,28.68-91.28Z"/>
                <path className="f" d="M97.3,1901.28c21.4,52.09,95.6,58.21,125.34-4.16-1.2,30.24,6.11,61.47,37,95.44h-191c17.66-29.85,28.3-60.2,28.68-91.28Z"/>
                <path className="f" d="M67.23,1948.08H93.59a11.6,11.6,0,0,1,11.57,11.57V1981a11.6,11.6,0,0,1-11.57,11.57H67.23A11.6,11.6,0,0,1,55.67,1981v-21.34a11.6,11.6,0,0,1,11.56-11.57Z"/>
                <polygon className="f" points="3542.45 1758.34 3582.78 1758.34 3582.78 2005.1 3542.45 2005.1 3542.45 1758.34 3542.45 1758.34"/>
                <polygon className="f" points="3592.45 1726.09 3721.47 1726.09 3721.47 2011.55 3592.45 2011.55 3592.45 1726.09 3592.45 1726.09"/>
                <polygon className="f" points="3611.8 1595.45 3692.44 1595.45 3692.44 1768.02 3611.8 1768.02 3611.8 1595.45 3611.8 1595.45"/>
                <polygon className="f" points="3666.64 1601.9 3737.59 1601.9 3777.92 1632.55 3777.92 2008.32 3710.18 2008.32 3710.18 1795.44 3666.64 1795.44 3666.64 1601.9 3666.64 1601.9"/>
                <polygon className="f" points="3323.12 1416.43 3423.1 1416.43 3423.1 1808.34 3323.12 1808.34 3323.12 1416.43 3323.12 1416.43"/>
                <polygon className="f" points="3173.75 1805.71 3236.24 1805.71 3236.24 2016.12 3173.75 2016.12 3173.75 1805.71 3173.75 1805.71"/>
                <polygon className="f" points="2969.67 1727.39 3011.59 1727.39 3011.59 1889.55 2969.67 1889.55 2969.67 1727.39 2969.67 1727.39"/>
                <polygon className="f" points="3065.38 1771.69 3123.92 1771.69 3123.92 1869.77 3065.38 1869.77 3065.38 1771.69 3065.38 1771.69"/>
                <polygon className="f" points="2765.57 1676.77 2881.86 1676.77 2881.86 1865.03 2765.57 1865.03 2765.57 1676.77 2765.57 1676.77"/>
                <polygon className="f" points="2714.96 1611.9 2764 1611.9 2779.03 1637.21 2779.03 1645.13 2784.95 1645.13 2784.95 1871.36 2693.99 1871.36 2693.99 1645.13 2699.92 1645.13 2699.92 1637.21 2714.96 1611.9 2714.96 1611.9"/>
                <polygon className="f" points="2488.72 1656.99 2605 1656.99 2605 1865.03 2488.72 1865.03 2488.72 1656.99 2488.72 1656.99"/>
                <polygon className="f" points="2540.93 1649.87 2657.22 1649.87 2657.22 1865.03 2540.93 1865.03 2540.93 1649.87 2540.93 1649.87"/>
                <polygon className="f" points="2572.56 1615.07 2657.22 1615.07 2657.22 1865.03 2572.56 1865.03 2572.56 1615.07 2572.56 1615.07"/>
                <polygon className="f" points="2499.01 1651.46 2526.68 1651.46 2526.68 1664.9 2499.01 1664.9 2499.01 1651.46 2499.01 1651.46"/>
                <polygon className="f" points="2196.04 1568.4 2311.53 1568.4 2311.53 1868.99 2196.04 1868.99 2196.04 1568.4 2196.04 1568.4"/>
                <polygon className="f" points="2294.91 1692.59 2449.16 1692.59 2449.16 2052.51 2294.91 2052.51 2294.91 1692.59 2294.91 1692.59"/>
                <polygon className="f" points="2327.35 1643.55 2443.63 1643.55 2443.63 1729.77 2327.35 1729.77 2327.35 1643.55 2327.35 1643.55"/>
                <polygon className="f" points="2331.31 1638.01 2370.86 1638.01 2370.86 1648.29 2331.31 1648.29 2331.31 1638.01 2331.31 1638.01"/>
                <polygon className="f" points="2423.06 1630.89 2430.97 1630.89 2430.97 1647.5 2423.06 1647.5 2423.06 1630.89 2423.06 1630.89"/>
                <polygon className="f" points="2204.75 1558.11 2211.86 1558.11 2211.86 1572.35 2204.75 1572.35 2204.75 1558.11 2204.75 1558.11"/>
                <polygon className="f" points="2241.92 1563.65 2271.2 1563.65 2271.2 1573.93 2241.92 1573.93 2241.92 1563.65 2241.92 1563.65"/>
                <polygon className="f" points="2282.27 1556.53 2290.96 1556.53 2290.96 1569.98 2282.27 1569.98 2282.27 1556.53 2282.27 1556.53"/>
                <polygon className="f" points="2302.82 1563.65 2294.91 1563.65 2294.91 1573.14 2302.82 1573.14 2302.82 1563.65 2302.82 1563.65"/>
                <polygon className="f" points="2095.22 1529.21 1956.98 1529.21 1956.98 1887.48 2095.22 1887.48 2095.22 1529.21 2095.22 1529.21"/>
                <polygon className="f" points="2072.76 1484.29 1956.98 1484.29 1956.98 1887.48 2072.76 1887.48 2072.76 1484.29 2072.76 1484.29"/>
                <polygon className="f" points="2010.55 1468.73 1956.98 1468.73 1956.98 1887.48 2010.55 1887.48 2010.55 1468.73 2010.55 1468.73"/>
                <polygon className="f" points="1127.98 1637.16 977.08 1637.16 977.08 2127.05 1127.98 2127.05 1127.98 1637.16 1127.98 1637.16"/>
                <polygon className="f" points="1098.49 1627.02 977.08 1627.02 977.08 2127.05 1098.49 2127.05 1098.49 1627.02 1098.49 1627.02"/>
                <polygon className="f" points="1098.49 1620.11 1008 1620.11 1008 2127.05 1098.49 2127.05 1098.49 1620.11 1098.49 1620.11"/>
                <polygon className="f" points="1063.05 1612.78 1016.86 1612.78 1016.86 2119.72 1063.05 2119.72 1063.05 1612.78 1063.05 1612.78"/>
                <polygon className="f" points="1056.89 1608.54 1023.02 1608.54 1023.02 2115.49 1056.89 2115.49 1056.89 1608.54 1056.89 1608.54"/>
                <polygon className="f" points="1800.16 1876.38 1661.92 1876.38 1661.92 2130.32 1800.16 2130.32 1800.16 1876.38 1800.16 1876.38"/>
                <polygon className="f" points="1770.86 1860.71 1661.92 1860.71 1661.92 2130.32 1770.86 2130.32 1770.86 1860.71 1770.86 1860.71"/>
                <polygon className="f" points="1945.8 1915.55 1836.87 1915.55 1836.87 2130.32 1945.8 2130.32 1945.8 1915.55 1945.8 1915.55"/>
                <polygon className="g" points="16.77 1986.64 747.79 1986.64 747.79 2102.35 16.77 2102.35 16.77 1986.64 16.77 1986.64"/>
                <polygon className="g" points="84.45 1977.6 116.04 1977.6 116.04 1991.16 84.45 1991.16 84.45 1977.6 84.45 1977.6"/>
                <polygon className="g" points="166.13 1977.6 197.72 1977.6 197.72 1991.16 166.13 1991.16 166.13 1977.6 166.13 1977.6"/>
                <polygon className="g" points="247.8 1977.6 279.39 1977.6 279.39 1991.16 247.8 1991.16 247.8 1977.6 247.8 1977.6"/>
                <polygon className="g" points="329.48 1977.6 361.07 1977.6 361.07 1991.16 329.48 1991.16 329.48 1977.6 329.48 1977.6"/>
                <polygon className="g" points="411.15 1977.6 442.75 1977.6 442.75 1991.16 411.15 1991.16 411.15 1977.6 411.15 1977.6"/>
                <polygon className="g" points="492.83 1977.6 524.42 1977.6 524.42 1991.16 492.83 1991.16 492.83 1977.6 492.83 1977.6"/>
                <polygon className="g" points="574.51 1977.6 606.1 1977.6 606.1 1991.16 574.51 1991.16 574.51 1977.6 574.51 1977.6"/>
                <polygon className="g" points="618.82 1847.14 783.32 1847.14 783.32 2076.26 618.82 2076.26 618.82 1847.14 618.82 1847.14"/>
                <polygon className="g" points="650.55 1746.09 815.05 1746.09 815.05 1871.81 650.55 1871.81 650.55 1746.09 650.55 1746.09"/>
                <polygon className="g" points="1234.53 1822.47 1283.88 1822.47 1283.88 2130.32 1234.53 2130.32 1234.53 1822.47 1234.53 1822.47"/>
                <polygon className="g" points="1266.26 1922.34 1369.66 1922.34 1369.66 2133.85 1266.26 2133.85 1266.26 1922.34 1266.26 1922.34"/>
                <polygon className="g" points="1307.38 1746.09 1565.88 1746.09 1565.88 2125.62 1307.38 2125.62 1307.38 1746.09 1307.38 1746.09"/>
                <polygon className="g" points="1460.13 1733.16 1556.49 1733.16 1556.49 1777.81 1460.13 1777.81 1460.13 1733.16 1460.13 1733.16"/>
                <polygon className="g" points="1555.26 1814.03 1747.13 1814.03 1747.13 2134.13 1555.26 2134.13 1555.26 1814.03 1555.26 1814.03"/>
                <polygon className="g" points="1731.89 1913.55 1775.82 1913.55 1775.82 2108.12 1731.89 2108.12 1731.89 1913.55 1731.89 1913.55"/>
                <polygon className="g" points="1773.14 1974.52 1835.9 1974.52 1835.9 2082.12 1773.14 2082.12 1773.14 1974.52 1773.14 1974.52"/>
                <polygon className="g" points="1580.37 1790.72 1708.58 1790.72 1708.58 1838.23 1580.37 1838.23 1580.37 1790.72 1580.37 1790.72"/>
                <polygon className="g" points="1589.33 1783.55 1708.58 1783.55 1708.58 1838.23 1589.33 1838.23 1589.33 1783.55 1589.33 1783.55"/>
                <polygon className="g" points="1609.95 1774.58 1620.71 1766.51 1677.2 1766.51 1687.96 1774.58 1687.96 1829.27 1609.95 1829.27 1609.95 1774.58 1609.95 1774.58"/>
                <polygon className="g" points="2023.3 1688.7 2215.17 1688.7 2215.17 2134.13 2023.3 2134.13 2023.3 1688.7 2023.3 1688.7"/>
                <polygon className="g" points="2133.96 1604.54 2241.73 1604.54 2241.73 2134.13 2133.96 2134.13 2133.96 1604.54 2133.96 1604.54"/>
                <polygon className="g" points="2133.96 1614.88 2271.26 1614.88 2271.26 2134.13 2133.96 2134.13 2133.96 1614.88 2133.96 1614.88"/>
                <polygon className="g" points="2133.96 1852.59 2396.76 1852.59 2396.76 2134.13 2133.96 2134.13 2133.96 1852.59 2133.96 1852.59"/>
                <polygon className="g" points="2290.46 1824.54 2396.76 1824.54 2396.76 2134.13 2290.46 2134.13 2290.46 1824.54 2290.46 1824.54"/>
                <polygon className="g" points="2308.17 1787.62 2396.76 1787.62 2396.76 2134.13 2308.17 2134.13 2308.17 1787.62 2308.17 1787.62"/>
                <polygon className="g" points="2420.39 1805.34 2508.97 1805.34 2508.97 2134.13 2420.39 2134.13 2420.39 1805.34 2420.39 1805.34"/>
                <polygon className="g" points="2449.92 1713.8 2706.82 1713.8 2706.82 2105.06 2449.92 2105.06 2449.92 1713.8 2449.92 1713.8"/>
                <polygon className="g" points="2449.92 1797.96 2733.39 1797.96 2733.39 2105.06 2449.92 2105.06 2449.92 1797.96 2449.92 1797.96"/>
                <polygon className="g" points="2449.92 1843.72 2863.32 1843.72 2863.32 2105.06 2449.92 2105.06 2449.92 1843.72 2449.92 1843.72"/>
                <polygon className="g" points="2777.69 1824.54 2826.41 1824.54 2826.41 2015.11 2777.69 2015.11 2777.69 1824.54 2777.69 1824.54"/>
                <polygon className="g" points="2374.62 2000.24 2508.97 2000.24 2508.97 2134.13 2374.62 2134.13 2374.62 2000.24 2374.62 2000.24"/>
                <polygon className="g" points="2961.32 1807.6 3099.26 1807.6 3099.26 2132.83 2961.32 2132.83 2961.32 1807.6 2961.32 1807.6"/>
                <polygon className="g" points="3007.82 1796.4 3058.62 1796.4 3058.62 1820.11 3007.82 1820.11 3007.82 1796.4 3007.82 1796.4"/>
                <polygon className="g" points="3077.82 1800.92 3092.49 1800.92 3092.49 1813.34 3077.82 1813.34 3077.82 1800.92 3077.82 1800.92"/>
                <polygon className="g" points="3224.58 1700.45 3297.96 1700.45 3297.96 2110.25 3224.58 2110.25 3224.58 1700.45 3224.58 1700.45"/>
                <polygon className="g" points="3241.51 1683.51 3297.96 1683.51 3297.96 2110.25 3241.51 2110.25 3241.51 1683.51 3241.51 1683.51"/>
                <polygon className="g" points="3241.51 1743.34 3554.23 1743.34 3554.23 2110.25 3241.51 2110.25 3241.51 1743.34 3241.51 1743.34"/>
                <polygon className="g" points="3391.66 1711.73 3554.23 1711.73 3554.23 2110.25 3391.66 2110.25 3391.66 1711.73 3391.66 1711.73"/>
                <polygon className="g" points="3462.78 1583.04 3506.71 1537.87 3510.3 1537.87 3554.23 1583.04 3554.23 2110.25 3462.78 2110.25 3462.78 1583.04 3462.78 1583.04"/>
                <polygon className="g" points="3504.55 1930.74 3667.12 1930.74 3667.12 2110.25 3504.55 2110.25 3504.55 1930.74 3504.55 1930.74"/>
                <polygon className="g" points="3614.06 1777.21 3776.62 1777.21 3776.62 2110.25 3614.06 2110.25 3614.06 1777.21 3614.06 1777.21"/>
                <polygon className="g" points="3684.06 1642.87 3754.05 1642.87 3754.05 2110.25 3684.06 2110.25 3684.06 1642.87 3684.06 1642.87"/>
                <polygon className="g" points="3694.22 1691.41 3764.21 1691.41 3819.68 1764.8 3819.68 2110.25 3764.21 2110.25 3749.69 2110.25 3694.22 2110.25 3694.22 1691.41 3694.22 1691.41"/>
                <polygon className="h" points="1191.9 1472.81 1264.51 1472.81 1264.51 1453.26 1191.9 1453.26 1191.9 1472.81 1191.9 1472.81"/>
                <polygon className="h" points="1195.01 1476.25 1261.4 1476.25 1261.4 1450.59 1195.01 1450.59 1195.01 1476.25 1195.01 1476.25"/>
                <polygon className="h" points="1166.17 1488.42 1191.9 1475.53 1264.51 1475.53 1290.24 1488.42 1290.24 1510.78 1166.17 1510.78 1166.17 1488.42 1166.17 1488.42"/>
                <polygon className="h" points="1132.13 1491.48 1324.28 1491.48 1324.28 1510.78 1306.36 1524.8 1150.06 1524.8 1132.13 1510.78 1132.13 1491.48 1132.13 1491.48"/>
                <polygon className="h" points="1150.06 1541.69 1170.61 1552.8 1285.8 1552.8 1306.36 1541.69 1306.36 1523.84 1150.06 1523.84 1150.06 1541.69 1150.06 1541.69"/>
                <polygon className="h" points="1170.61 1566.57 1189.24 1583.01 1267.17 1583.01 1285.8 1566.57 1285.8 1551.46 1170.61 1551.46 1170.61 1566.57 1170.61 1566.57"/>
                <polygon className="h" points="1195.01 2049.74 1261.4 2049.74 1261.4 1581.11 1195.01 1581.11 1195.01 2049.74 1195.01 2049.74"/>
                <polygon className="h" points="1070.7 2132.53 1261.4 2132.53 1261.4 1651.7 1070.7 1651.7 1070.7 2132.53 1070.7 2132.53"/>
                <polygon className="h" points="1225.73 1456.16 1230.69 1456.16 1230.69 1334.07 1225.73 1334.07 1225.73 1456.16 1225.73 1456.16"/>
                <polygon className="h" points="1218.65 1413.2 1237.75 1413.2 1237.75 1420.66 1218.65 1420.66 1218.65 1413.2 1218.65 1413.2"/>
                <polygon className="h" points="1218.65 1373.47 1237.75 1373.47 1237.75 1380.93 1218.65 1380.93 1218.65 1373.47 1218.65 1373.47"/>
                <polygon className="h" points="1218.65 1333.74 1237.75 1333.74 1237.75 1341.19 1218.65 1341.19 1218.65 1333.74 1218.65 1333.74"/>
                <polygon className="h" points="1226.22 1333.42 1228.2 1275.5 1230.18 1333.42 1226.22 1333.42 1226.22 1333.42"/>
                <polygon className="h" points="1059.6 1777.5 756.99 1777.5 756.99 2133.78 1059.6 2133.78 1059.6 1777.5 1059.6 1777.5"/>
                <polygon className="h" points="1016.1 1746.03 800.48 1746.03 800.48 2102.32 1016.1 2102.32 1016.1 1746.03 1016.1 1746.03"/>
                <path className="h" d="M908.29,1676a74,74,0,1,1-74,74,74.17,74.17,0,0,1,74-74Z"/>
                <polygon className="h" points="2418.88 2035.27 1747.33 2035.27 1747.33 2133.78 2418.88 2133.78 2418.88 2035.27 2418.88 2035.27"/>
                <polygon className="h" points="2100.38 1963.14 1795.05 1963.14 1795.05 2061.65 2100.38 2061.65 2100.38 1963.14 2100.38 1963.14"/>
                <polygon className="h" points="2070.42 1936.5 1819.47 1936.5 1819.47 2035.02 2070.42 2035.02 2070.42 1936.5 2070.42 1936.5"/>
                <polygon className="h" points="2032.86 1821.49 1856.48 1821.49 1856.48 1954.13 2032.86 1954.13 2032.86 1821.49 2032.86 1821.49"/>
                <polygon className="h" points="2017.78 1798.87 1871.56 1798.87 1871.56 1931.52 2017.78 1931.52 2017.78 1798.87 2017.78 1798.87"/>
                <polygon className="h" points="2002.7 1785.15 1979.39 1760.48 1909.94 1760.48 1886.64 1785.15 1886.64 1917.81 2002.7 1917.81 2002.7 1785.15 2002.7 1785.15"/>
                <polygon className="h" points="1969.8 1734.43 1947.87 1711.82 1941.48 1711.82 1919.54 1734.43 1919.54 1867.09 1969.8 1867.09 1969.8 1734.43 1969.8 1734.43"/>
                <polygon className="h" points="2400.93 1922.24 2129.54 1922.24 2129.54 2092.49 2400.93 2092.49 2400.93 1922.24 2400.93 1922.24"/>
                <polygon className="h" points="2203.53 1913.33 2135.7 1913.33 2135.7 2083.58 2203.53 2083.58 2203.53 1913.33 2203.53 1913.33"/>
                <polygon className="h" points="2331.7 1913.33 2263.88 1913.33 2263.88 2083.58 2331.7 2083.58 2331.7 1913.33 2331.7 1913.33"/>
                <polygon className="h" points="2418.88 2159.71 0 2159.71 0 2117.07 2418.88 2117.07 2418.88 2159.71 2418.88 2159.71"/>
                <polygon className="h" points="1289.37 2016.51 1400.57 2016.51 1400.57 2137.04 1289.37 2137.04 1289.37 2016.51 1289.37 2016.51"/>
                <polygon className="h" points="1431.27 2083.84 1548.28 2083.84 1548.28 2145.36 1431.27 2145.36 1431.27 2083.84 1431.27 2083.84"/>
                <polygon className="h" points="1530.02 2028.15 1593.92 2028.15 1593.92 2148.68 1530.02 2148.68 1530.02 2028.15 1530.02 2028.15"/>
                <polygon className="h" points="1535.83 2017.34 1562.39 2017.34 1562.39 2036.46 1535.83 2036.46 1535.83 2017.34 1535.83 2017.34"/>
                <polygon className="h" points="1302.65 2004.04 1339.98 2004.04 1339.98 2028.15 1302.65 2028.15 1302.65 2004.04 1302.65 2004.04"/>
                <polygon className="h" points="1440.4 1993.23 1515.92 1993.23 1515.92 2125.41 1440.4 2125.41 1440.4 1993.23 1440.4 1993.23"/>
                <polygon className="h" points="1577.33 2102.96 1668.6 2102.96 1668.6 2129.56 1577.33 2129.56 1577.33 2102.96 1577.33 2102.96"/>
                <polygon className="h" points="1627.94 1989.08 1695.99 1989.08 1695.99 2136.22 1627.94 2136.22 1627.94 1989.08 1627.94 1989.08"/>
                <polygon className="h" points="1718.4 2070.53 1767.36 2070.53 1767.36 2123.74 1718.4 2123.74 1718.4 2070.53 1718.4 2070.53"/>
                <polygon className="h" points="1676.08 2038.96 1710.1 2038.96 1710.1 2124.58 1676.08 2124.58 1676.08 2038.96 1676.08 2038.96"/>
                <polygon className="h" points="3840 2159.71 0.07 2159.71 0.07 2117.07 3840 2117.07 3840 2159.71 3840 2159.71"/>
                <polygon className="h" points="2853.28 1590.47 2996.32 1590.47 2996.32 2127.14 2853.28 2127.14 2853.28 1590.47 2853.28 1590.47"/>
                <polygon className="h" points="3027.22 1851.37 3198.86 1851.37 3198.86 2122.57 3027.22 2122.57 3027.22 1851.37 3027.22 1851.37"/>
                <polygon className="h" points="3036.37 1829.62 3164.53 1829.62 3164.53 1881.12 3036.37 1881.12 3036.37 1829.62 3036.37 1829.62"/>
                <polygon className="h" points="3180.55 1976.09 3267.52 1976.09 3267.52 2124.85 3180.55 2124.85 3180.55 1976.09 3180.55 1976.09"/>
                <polygon className="h" points="3258.36 2081.37 3367.08 2081.37 3367.08 2135.16 3258.36 2135.16 3258.36 2081.37 3258.36 2081.37"/>
                <polygon className="h" points="3309.86 1947.49 3411.7 1947.49 3411.7 2142.02 3309.86 2142.02 3309.86 1947.49 3309.86 1947.49"/>
                <polygon className="h" points="3399.12 2081.37 3451.76 2081.37 3451.76 2126 3399.12 2126 3399.12 2081.37 3399.12 2081.37"/>
                <polygon className="h" points="3433.45 2036.75 3640.56 2036.75 3640.56 2127.14 3433.45 2127.14 3433.45 2036.75 3433.45 2036.75"/>
                <polygon className="h" points="3601.65 2074.5 3749.28 2074.5 3749.28 2135.16 3601.65 2135.16 3601.65 2074.5 3601.65 2074.5"/>
                <polygon className="h" points="3655.44 2056.2 3703.5 2056.2 3703.5 2083.66 3655.44 2083.66 3655.44 2056.2 3655.44 2056.2"/>
                <polygon className="h" points="3725.24 2018.44 3807.63 2018.44 3807.63 2128.29 3725.24 2128.29 3725.24 2018.44 3725.24 2018.44"/>
                <polygon className="h" points="3792.76 2083.66 3829.38 2083.66 3829.38 2124.85 3792.76 2124.85 3792.76 2083.66 3792.76 2083.66"/>
                <polygon className="h" points="3462.05 2011.57 3551.3 2011.57 3551.3 2065.35 3462.05 2065.35 3462.05 2011.57 3462.05 2011.57"/>
                <polygon className="h" points="3529.57 1998.98 3535.28 1998.98 3535.28 2013.86 3529.57 2013.86 3529.57 1998.98 3529.57 1998.98"/>
                <polygon className="h" points="3607.38 2025.31 3632.56 2025.31 3632.56 2044.75 3607.38 2044.75 3607.38 2025.31 3607.38 2025.31"/>
                <polygon className="h" points="3733.26 2005.85 3764.14 2005.85 3764.14 2021.87 3733.26 2021.87 3733.26 2005.85 3733.26 2005.85"/>
                <polygon className="h" points="2410.44 2075.66 2744.58 2075.66 2744.58 2136.3 2410.44 2136.3 2410.44 2075.66 2410.44 2075.66"/>
                <polygon className="h" points="2455.06 2052.77 2526.01 2052.77 2526.01 2088.24 2455.06 2088.24 2455.06 2052.77 2455.06 2052.77"/>
                <polygon className="h" points="2588.95 2031.02 2655.32 2031.02 2655.32 2095.1 2588.95 2095.1 2588.95 2031.02 2588.95 2031.02"/>
                <polygon className="h" points="2683.92 2065.35 2713.68 2065.35 2713.68 2080.23 2683.92 2080.23 2683.92 2065.35 2683.92 2065.35"/>
                <polygon className="h" points="2518.01 2066.5 2560.34 2066.5 2560.34 2084.81 2518.01 2084.81 2518.01 2066.5 2518.01 2066.5"/>
                <polygon className="h" points="2598.11 2019.58 2633.57 2019.58 2633.57 2033.31 2598.11 2033.31 2598.11 2019.58 2598.11 2019.58"/>
                <polygon className="h" points="2725.12 1976.09 2743.43 1976.09 2743.43 2093.96 2725.12 2093.96 2725.12 1976.09 2725.12 1976.09"/>
                <polygon className="h" points="2738.85 1998.98 2869.3 1998.98 2869.3 2122.57 2738.85 2122.57 2738.85 1998.98 2738.85 1998.98"/>
                <polygon className="h" points="2766.31 1980.67 2833.83 1980.67 2833.83 2025.31 2766.31 2025.31 2766.31 1980.67 2766.31 1980.67"/>
                <polygon className="h" points="2780.05 1970.38 2815.53 1970.38 2815.53 1987.54 2780.05 1987.54 2780.05 1970.38 2780.05 1970.38"/>
                <polygon className="h" points="9.62 2016.91 740.63 2016.91 740.63 2132.63 9.62 2132.63 9.62 2016.91 9.62 2016.91"/>
                <polygon className="h" points="724.39 2056.68 789.37 2056.68 789.37 2134.43 724.39 2134.43 724.39 2056.68 724.39 2056.68"/>
                <polygon className="h" points="77.31 2007.87 108.89 2007.87 108.89 2021.43 77.31 2021.43 77.31 2007.87 77.31 2007.87"/>
                <polygon className="h" points="158.99 2007.87 190.57 2007.87 190.57 2021.43 158.99 2021.43 158.99 2007.87 158.99 2007.87"/>
                <polygon className="h" points="240.66 2007.87 272.24 2007.87 272.24 2021.43 240.66 2021.43 240.66 2007.87 240.66 2007.87"/>
                <polygon className="h" points="322.34 2007.87 353.92 2007.87 353.92 2021.43 322.34 2021.43 322.34 2007.87 322.34 2007.87"/>
                <polygon className="h" points="404.01 2007.87 435.6 2007.87 435.6 2021.43 404.01 2021.43 404.01 2007.87 404.01 2007.87"/>
                <polygon className="h" points="485.69 2007.87 517.27 2007.87 517.27 2021.43 485.69 2021.43 485.69 2007.87 485.69 2007.87"/>
                <polygon className="h" points="567.36 2007.87 598.95 2007.87 598.95 2021.43 567.36 2021.43 567.36 2007.87 567.36 2007.87"/>
            </svg>