<svg xmlns="http://www.w3.org/2000/svg" class="fact_image" viewBox="0 0 748.79 381.45">
<path d="M440.73,434.32c3.81-6.62,8.17-13.15,11.5-20.16C458,402,467.31,395.7,480.64,394.58c14.33-1.21,27.23,1.61,37.54,12.29,9.87,10.21,16.12,22.79,22.5,35.25,2.43,4.74,4.79,9.52,6.91,14.41,1.11,2.54,2.49,3.44,5.32,3,33.62-4.75,63.19-16.7,84.45-45,15.95-21.21,31.23-42.78,43.56-66.32,1-1.92,2.12-3.78,3.26-5.62,4.89-7.8,9.59-9.4,18.1-5.64,11.76,5.2,20,14,23.55,26.32a134.58,134.58,0,0,1,4.4,23.94c.75,7.4,4,13.34,8.59,18.68.95,1.1,3.69,1.64,5.14,1.13,3.42-1.22,6.47-3.42,9.82-4.86s7.07-3.25,10.75-3.68c8.26-1,14.91,4.89,14.66,13.18-.25,8-1.44,15.89-2.44,23.81-.33,2.68-.65,5.35,2.46,6.11,2.29.56,5.35.92,7.17-.15,5.21-3.05,10.26-5.45,16.48-3.67C814,441.05,818.58,448,817.54,461c-.33,4.25-.36,7.87,4.3,10,2.79,1.29,4.85,1.13,7.32-.68,12.28-9,23.38-4.4,26.07,10.75.4,2.29.52,4.64,1,6.91,1.3,5.91,6.74,8.26,11.67,5.14,7.09-4.5,17-.07,17.08,8.26.09,5.62,2.68,7.12,7.27,8.51q80.36,24.18,160.59,48.74c15.13,4.65,30,10.21,43.4,18.85,28.14,18.11,39.14,59.48,23.26,86.9-8.37,14.44-21.67,21.45-37.11,25.76C1052,698.67,1021,704,989.69,707.46c-69.85,7.72-140,9.23-210.16,9.07q-107.24-.25-214.46-2.31c-35.46-.73-70.91-3.2-106.27-6-14.33-1.15-28.43-5.24-42.61-8.13-5.3-1.08-9.26-4.27-12.33-8.72-12.17-17.6-19.88-36.6-17.79-58.45,1.29-13.52,7-25.57,13.24-37.43a18,18,0,0,0,2-10.77c-4.81-26.65-3.46-52.71,5.82-78.31.78-2.15.11-5.63-1.21-7.62-7.19-10.81-15.16-21.12-22.17-32-10.09-15.74-6.65-28,9.52-37.54,14.27-8.37,28-6.54,41.48,1.78,1.56,1,3,2.06,4.57,3.06A5.72,5.72,0,0,0,440.73,434.32Zm342.7,40C768.94,485.83,755.05,497,741,508a177.79,177.79,0,0,1-16.76,11.72c-4.65,2.83-9.7,1.58-13-2.32a11,11,0,0,1,1-15.63c13.57-11.3,27.31-22.39,41-33.6,3.16-2.59,6.21-5.31,9.87-8.44-7.38-6-14.19-11.29-20.69-16.93-3.42-3-6.34-3.39-10.1-.7-3,2.12-6.36,3.62-9.58,5.38-19.12,10.48-38.19,21.09-57.42,31.37-6.1,3.26-12,.44-14.28-6.07-2.1-5.91-.87-9.79,5.08-13.37q29.52-17.81,59.26-35.23c3.68-2.15,4.82-4.07,2-7.7-6.54-8.4-9.62-18-10.45-28.63-.62-8.05-1.95-16.11-6.6-23.8-1.2,1.73-2.14,3.05-3,4.4-12.06,18-23.82,36.14-36.25,53.84-10.09,14.36-21.6,27.54-36.62,37.14-32.93,21.05-69.26,26.81-107.35,22.66-20.09-2.19-36-12.31-46.48-30.11-2-3.42-3.81-6.94-6-10.91a44.85,44.85,0,0,1-2.92,4.08c-3.42,3.71-2.76,6.41,1.06,9.74,9.54,8.31,18.75,17,27.92,25.75,7.3,6.94,8,11.2,1.2,18.32-13.58,14.18-27.82,27.73-41.92,41.41-3.52,3.42-7.79,3-11.41.18-2.71-2.1-4.81-5-7.19-7.53L426,527.29c-.8,3-1.39,4.88-1.76,6.77-2.84,14.4-2.3,28.8-.2,43.26.81,5.62,3.25,9.32,8.93,10.49,19.22,4,38.28,9.27,57.7,11.52,42.18,4.9,84.53,8.3,126.83,12.19q57.22,5.26,114.48,10.27c47.78,4.23,95.51,9.59,143.38,12.28,48.72,2.74,97.58,3.12,146.39,3.9a280.25,280.25,0,0,0,43.79-2.89c11.94-1.71,22.43-7.43,28.69-18.74,2-3.63,1.85-6.9-1-10.07-6.06-6.79-12.68-12.83-21.5-15.79-16.4-5.52-32.76-11.21-49.29-16.31-46.77-14.41-93.65-28.5-140.44-42.84-12-3.67-11.88-3.85-19.65,6-7.43,9.42-14.76,18.91-22.44,28.12a16.28,16.28,0,0,1-7.61,5.13,10.2,10.2,0,0,1-11.51-4c-3.16-4.25-2.94-8.53-.19-12.51,5.66-8.22,11.66-16.21,17.57-24.26,3.5-4.79,7.08-9.52,10.94-14.7-4.74-2.88-9-5.2-12.91-7.93-3.65-2.53-6.14-2.26-9.16,1.31-8.93,10.55-18.7,20.41-27.28,31.23-7.56,9.53-16.89,12.13-28.26,10.67-6.6-.86-11.59-5.48-11.79-11.43a10.9,10.9,0,0,1,10.84-11.46c7.38-.24,12-4.06,16.3-9.15,2.36-2.8,4.85-5.5,7.22-8.29,5-5.92,10-11.88,15.55-18.44ZM456.93,618.22c-6.92,21.79-6.09,42.89-.36,64a3.53,3.53,0,0,0,2.12,2.29c8.81,1.2,17.65,2.2,27.05,3.32-1.06-6.47-2.18-12-2.82-17.49a135.58,135.58,0,0,1,1.75-40.7c.76-4.06.12-6.69-4.66-7.39C472.48,621.16,465,619.65,456.93,618.22ZM502.6,625a106.19,106.19,0,0,0,.48,63.47l26.63,1.4c-2.8-21-3.94-41.08.89-61.63Zm70.81,65.52c.28-.89.51-1.21.46-1.5-2.8-17.71-3.63-35.38.6-53,.24-1-1.77-3.55-3-3.73a177.72,177.72,0,0,0-20.33-2c-1.68,0-4.35,1.84-4.95,3.44a46.59,46.59,0,0,0-2.71,12.09c-1.23,13.81-1.23,27.6,3,41,.46,1.43,2.08,3.51,3.23,3.56C557.71,690.71,565.66,690.56,573.41,690.56Zm18.11-57.22c-1,5.5-2.75,10.68-2.77,15.86,0,12.58.6,25.17,1.28,37.74.09,1.79,1.87,4.95,3,5,8.88.42,17.78.23,27.81.23a95.75,95.75,0,0,1-.39-56.52ZM439.15,680.93c-.78-6-1.74-11.35-2.15-16.77-1.09-14.34-.9-28.66,2.64-42.7,1.24-4.9-.09-7.35-5.15-8.3-3.9-.73-7.67-2.22-11.47-3.43-2.77-.88-4.56-.3-6,2.53-9.8,18.83-10.28,37.47.17,56.28C421.86,677,428.89,680.81,439.15,680.93Zm27.54-190.56c-4.19-3.72-8.49-7.62-12.87-11.42-10.8-9.37-21.58-18.76-32.49-28-3.84-3.24-8.3-4.91-13.44-3.08s-5.78,3.6-2.74,7.92q13.78,19.57,27.77,39c4.12,5.76,8.33,11.47,12.33,17Zm197,201.86a23.42,23.42,0,0,0-.17-3c-3.1-15.38-3.29-30.7,1-45.89,1-3.66-1.08-4.4-3.86-4.65-7-.65-13.91-1.43-20.88-1.7-1.31-.06-3.59,1.71-3.94,3-4.38,16.43-3.69,32.9.48,49.27.3,1.15,1.82,2.8,2.82,2.82C647.26,692.33,655.36,692.23,663.71,692.23Zm43.82,0c-.45-10.21-1.15-19.64-1.19-29.07,0-5.47,1-10.94,1.62-16.4.34-2.88-.56-4.27-3.68-4.44-6.31-.33-12.61-1.16-18.93-1.33a5.47,5.47,0,0,0-4.16,2.79c-6,15.18-5.4,30.6-.9,46a4.2,4.2,0,0,0,3.1,2.34C691.52,692.34,699.66,692.25,707.53,692.25Zm45.57,0c0-13.91-.07-27,.06-40,0-2.83-.72-4.45-3.7-4.72-7.11-.65-14.22-1.27-21.32-2.08-2.82-.31-4,.83-4.19,3.48-.43,8.44-1.09,16.87-1.18,25.31a92.47,92.47,0,0,0,1.41,14.82c.18,1.19,1.86,3,2.9,3.06C735.68,692.36,744.29,692.25,753.1,692.25Zm43.57-.37c0-12.08,0-23.69,0-35.3,0-3.23-1.68-4.72-4.94-4.94-5.8-.38-11.63-.74-17.36-1.63-3.77-.58-5.47.74-5.5,4.24-.12,10.94-.27,21.88.11,32.81.06,1.65,2.78,4.5,4.42,4.61C781,692.16,788.58,691.88,796.67,691.88Zm43.86,0c.59-11.21,1.25-21.91,1.57-32.62,0-1.12-1.77-3.2-2.88-3.31-6.77-.71-13.58-1-20.39-1.38-3.54-.17-5.83,1.48-5.87,5.21-.1,8.79-.09,17.58,0,26.37,0,3.61,2.1,5.62,5.6,5.69C826.13,692,833.74,691.86,840.53,691.86Zm45.06-33.11c-7.8-.44-15.42-.84-23-1.29-2.78-.17-4.27,1-4.81,3.81-2,10.26-1.33,20.42.44,30.33,7.89,0,15.34-.07,22.79,0,3.21,0,4.58-1.51,4.59-4.48C885.61,677.88,885.59,668.59,885.59,658.75Zm45.09,1.69c-7,0-14.57,0-22.13,0-3.84,0-5.69,2.14-6.55,5.59-2.09,8.35-1,16.44,1.59,24.78,7.15-.46,14.1-1.23,21-1.25,4.71,0,6.15-2,6.09-6.32C930.6,675.94,930.68,668.65,930.68,660.44ZM521.6,459.28a131,131,0,0,0-18.26-33.94c-3.8-5.11-9.15-7-15.1-7.72-3.81-.48-5.62.55-4.45,5,2.36,9,6.08,17.39,12.33,24.27C502.8,454.26,511.61,457.9,521.6,459.28Zm453.82,202.2c-8.46,0-16.4-.09-24.33.1-1.08,0-3,1.43-3,2.31q-.9,10.56-1.07,21.16c0,.87,1.8,2.59,2.68,2.53a201.2,201.2,0,0,0,21.26-2c1.73-.28,4.14-3.1,4.3-4.93C975.76,674.57,975.42,668.43,975.42,661.48Zm50.08.26c-9.67,0-19.13-.18-28.57.17-1.6.06-4.09,2.16-4.47,3.74A55.69,55.69,0,0,0,991.18,678c0,3.09,1.73,4.95,5.15,4.55,5.45-.64,10.92-1.21,16.36-1.92,4.89-.65,9.75-1.45,14.68-2.19C1026.72,672.57,1026.15,667.46,1025.5,661.74Zm75.82-16.2c-17.73,12-37.78,15.09-58.31,16.68-.28,2.73-.61,4.85-.69,7-.13,3.44,1.16,5.62,5,4.62,13.49-3.47,27.11-6.52,40.38-10.72C1095.53,660.65,1100.05,654.22,1101.32,645.54Z" transform="translate(-378.05 -335.09)"/></svg>